<?xml version="1.0" encoding="utf-8"?>
<svg version="1.1" id="svg2" width="2666.6667" height="2666.6667" viewBox="0 0 2666.6667 2666.6667" xmlns="http://www.w3.org/2000/svg" xmlns:bx="https://boxy-svg.com"><defs><bx:export><bx:file format="svg"/></bx:export></defs><g id="g8" transform="matrix(1.3333333,0,0,-1.3333333,0,2666.6667)"><g id="g10" transform="scale(0.1)" style=""><g style=""><title>Outline</title><path d="M 19302.2 9780.4 C 19277.8 9806 19147.3 9890.1 19115.6 9923 C 19083.9 9955.9 19083.9 9981.5 18996.2 10132.7 C 18908.4 10283.9 18581 10418.1 18544.4 10425.4 C 18507.8 10432.7 18436.5 10522.3 18418.2 10571.7 C 18342.8 10775.3 18165.8 11471.6 18089 12093.4 C 18012.1 12715.3 17723.2 13066.5 17565.9 13282.3 C 17573.2 13878.6 17436.4 14002.8 17361 14193.1 C 17368.3 14343.1 17420.4 14669 17385.2 15097.5 C 17357.4 15436.9 16933 15841.7 16669.6 15878.3 C 16499.1 15902 16405 15861.2 16184.4 15878.3 C 15963.7 15895.3 15550.3 16266 15528.3 16309.9 C 15506.4 16353.8 15460.1 16719.6 15494.2 16765.9 C 15528.3 16812.3 15533.2 16768.4 15567.4 16863.5 C 15601.5 16958.6 15583.1 17129.6 15583.1 17129.6 C 15583.1 17129.6 15592.2 17166.1 15598.5 17140.9 C 15602.1 17126.3 15609.4 17111 15625.9 17102.5 C 15651.4 17089.2 15683.2 17150.9 15716.7 17209.2 C 15805.8 17364.3 15889.3 17660.3 15766.1 17697.5 C 15743.7 17704.3 15711.2 17646.3 15711.2 17646.3 C 15711.2 17675.6 15740.5 17946.3 15696.6 18114.5 C 15661.5 18249.3 15529.8 18384.1 15425.9 18465.7 C 15299 18565.4 15040.1 18572.5 14975.7 18573 C 14974.3 18573 14972 18573 14969.9 18573 C 14967.9 18573 14965.5 18573 14964.2 18573 C 14899.7 18572.5 14640.9 18565.4 14513.9 18465.7 C 14410 18384.1 14278.4 18249.3 14243.2 18114.5 C 14199.3 17946.3 14228.6 17675.6 14228.6 17646.3 C 14228.6 17646.3 14196.2 17704.3 14173.7 17697.5 C 14050.6 17660.3 14134 17364.3 14223.1 17209.2 C 14256.6 17150.9 14288.4 17089.2 14314 17102.5 C 14330.4 17111 14337.7 17126.3 14341.4 17140.9 C 14347.7 17166.1 14356.8 17129.6 14356.8 17129.6 C 14356.8 17129.6 14338.3 16958.6 14372.5 16863.5 C 14406.6 16768.4 14411.5 16812.3 14445.7 16765.9 C 14479.8 16719.6 14433.5 16353.8 14411.5 16309.9 C 14389.6 16266 13976.2 15895.3 13755.5 15878.3 C 13534.8 15861.2 13440.8 15902 13270.2 15878.3 C 13006.8 15841.7 12582.5 15436.9 12554.6 15097.5 C 12519.5 14669 12571.5 14343.1 12578.8 14193.1 C 12503.4 14002.8 12366.7 13878.6 12374 13282.3 C 12216.7 13066.5 11927.7 12715.3 11850.9 12093.4 C 11774.1 11471.6 11597.1 10775.3 11521.7 10571.7 C 11503.4 10522.3 11432.1 10432.7 11395.5 10425.4 C 11358.9 10418.1 11031.5 10283.9 10943.7 10132.7 C 10855.9 9981.5 10855.9 9955.9 10824.2 9923 C 10792.5 9890.1 10662 9806 10637.7 9780.4 C 10613.3 9754.7 10596.2 9658.4 10664.5 9642.6 C 10732.8 9626.7 10915.4 9666.3 10974.8 9799.9 C 11046.1 9846.5 11063.5 9847.4 11063.5 9847.4 C 11063.5 9847.4 11087.6 9774.3 11083.9 9715.7 C 11080.3 9657.2 10960.2 9478 10912.6 9371.9 C 10865.1 9265.8 10722.4 9070.1 10760.8 9015.2 C 10799.2 8960.4 10854.1 8969.5 10877.9 8987.8 C 10901.6 9006.1 11037 9235.6 11063.5 9275.9 C 11093.7 9315.2 11207.1 9461.5 11227.2 9483.4 C 11194.9 9349.9 11142.5 9192.6 11121.7 9130.5 C 11101 9068.3 11004.3 8881 11003.5 8817.1 C 11002.2 8728.1 11063.7 8708.4 11104.7 8735.4 C 11219.3 8811 11283.6 9004.7 11312 9060.9 C 11359.9 9156.2 11411.9 9325.5 11460.7 9403.6 C 11448.5 9308.5 11418.8 9177.4 11402.8 9066.4 C 11394.7 9010.3 11345.5 8721.4 11408.3 8702.5 C 11505.2 8673.2 11518 8784.8 11556.4 8916.5 C 11594.8 9048.1 11642.4 9373.7 11671.7 9423.1 C 11715.6 9413.9 11709 9382.9 11717.4 9295.1 C 11728.4 9179.6 11719.2 8892.7 11803.3 8892.7 C 11887.5 8892.7 11893.6 9181.7 11904.5 9357.2 C 11915.5 9532.8 11972.8 9625.5 12002.1 9769.4 C 12031.4 9913.3 12099.5 10113.1 12094.8 10281.5 C 12092.6 10359.7 12059.4 10429 12126.5 10679 C 12167.6 10832.4 12684.9 11844.7 12743.1 11939.8 C 12806.1 12042.8 12923.9 12349.5 12953.2 12583.6 C 12982.4 12817.7 12977.6 12827.5 12992.2 12939.7 C 13006.8 13051.8 13052.2 13101.3 13109.3 13168.9 C 13175.1 13246.9 13270.2 13478.6 13343.4 13794.4 C 13377.5 13795.6 13388 13823.8 13404.3 13812.7 C 13404.3 13812.7 13448.2 13312.8 13538.5 13173.8 C 13628.7 13034.8 13601.9 12983.6 13621.4 12932.3 C 13640.9 12881.1 13631.1 12547 13616.5 12361.7 C 13601.9 12176.4 13559.2 11530.1 13519 11376.5 C 13478.7 11222.8 13428.7 11157 13389.7 10961.9 C 13350.7 10766.8 13288.5 10511.4 13275.1 10271.8 C 13275.1 10271.8 13193.1 9703 13200.7 9488.9 C 13208.8 9259.6 13149.5 7700.2 13478.7 7319.7 C 13462.9 7245.4 13477.5 7116.1 13479.9 7077.1 C 13482.4 7038.1 13387.3 6633.2 13423.8 6362.5 C 13460.4 6091.9 13445.8 6185.7 13438.5 6118.1 C 13431.2 6050.4 13138.5 5143.2 13577.5 3472.7 C 13603.7 3372.9 13614.1 3171.5 13614.1 3065.4 C 13614.1 2959.4 13577.5 2750.9 13577.5 2652.1 C 13577.5 2553.3 13573.8 2505.8 13595.8 2443.6 C 13617.7 2381.4 13614.1 2279 13599.4 2202.2 C 13584.8 2125.3 13288.5 1916.8 13262.9 1803.4 C 13237.3 1690 13204.4 1624.2 13251.9 1591.3 C 13299.5 1558.3 13321.4 1591.3 13321.4 1591.3 C 13321.4 1591.3 13303.1 1536.4 13332.4 1507.1 C 13361.7 1477.9 13449.5 1481.5 13449.5 1481.5 C 13449.5 1481.5 13478.7 1474.2 13497 1445 C 13515.3 1415.7 13592.1 1401.1 13610.4 1419.3 C 13628.7 1437.6 13639.7 1436.1 13654.3 1411.3 C 13662.2 1397.8 13694.7 1382 13722.9 1370.4 C 13750 1359.1 13780.8 1361.6 13805.8 1377 L 13862.8 1412 C 13862.8 1412 13910.4 1357.2 13921.3 1353.5 C 13932.3 1349.8 14045.7 1309.6 14075 1353.5 C 14104.2 1397.4 14243.2 1503.5 14235.9 1627.9 C 14228.6 1752.2 14217.6 1821.7 14221.3 1865.6 C 14224.9 1909.5 14235.9 1975.4 14254.2 2041.2 C 14272.5 2107.1 14294.5 2136.3 14279.8 2260.7 C 14265.2 2385.1 14276.2 2392.4 14276.2 2414.3 C 14276.2 2436.3 14294.5 2494.8 14298.1 2560.6 C 14301.8 2626.5 14250.6 2761.8 14250.6 2761.8 C 14250.6 2761.8 14228.6 2893.5 14217.6 3072.8 C 14206.7 3252 14243.2 3958 14316.4 4192.1 C 14389.6 4426.2 14432.5 4499.5 14440.8 4557.9 C 14528.6 5176.1 14386 5841.8 14360.3 6077.2 C 14345.7 6211.3 14404.2 6226 14440.8 6361.3 C 14477.4 6496.7 14506.6 6833.2 14466.4 6983.2 C 14436.9 7093.2 14568.8 7495.3 14587.1 7619.7 C 14605.4 7744.1 14856.6 8706.1 14870 8878 C 14883.4 9050 14900.5 9583.2 14855.4 9663.7 C 14876.8 9663.7 14938.4 9621 14964.6 9613.5 C 14965.8 9612.6 14967.7 9612.4 14969.9 9612.6 C 14972.2 9612.4 14974.1 9612.6 14975.2 9613.5 C 15001.5 9621 15063 9663.7 15084.5 9663.7 C 15039.4 9583.2 15056.5 9050 15069.9 8878 C 15083.3 8706.1 15334.5 7744.1 15352.8 7619.7 C 15371.1 7495.3 15503 7093.2 15473.5 6983.2 C 15433.2 6833.2 15462.5 6496.7 15499.1 6361.3 C 15535.7 6226 15594.2 6211.3 15579.6 6077.2 C 15553.9 5841.8 15411.3 5176.1 15499.1 4557.9 C 15507.4 4499.5 15550.3 4426.2 15623.5 4192.1 C 15696.6 3958 15733.2 3252 15722.2 3072.8 C 15711.2 2893.5 15689.3 2761.8 15689.3 2761.8 C 15689.3 2761.8 15638.1 2626.5 15641.7 2560.6 C 15645.4 2494.8 15663.7 2436.3 15663.7 2414.3 C 15663.7 2392.4 15674.7 2385.1 15660 2260.7 C 15645.4 2136.3 15667.4 2107.1 15685.6 2041.2 C 15703.9 1975.4 15714.9 1909.5 15718.6 1865.6 C 15722.2 1821.7 15711.2 1752.2 15703.9 1627.9 C 15696.6 1503.5 15835.6 1397.4 15864.9 1353.5 C 15894.1 1309.6 16007.5 1349.8 16018.5 1353.5 C 16029.5 1357.2 16077 1412 16077 1412 L 16134.1 1377 C 16159 1361.6 16189.8 1359.1 16216.9 1370.4 C 16245.1 1382 16277.6 1397.8 16285.6 1411.3 C 16300.2 1436.1 16311.2 1437.6 16329.5 1419.3 C 16347.7 1401.1 16424.6 1415.7 16442.9 1445 C 16461.1 1474.2 16490.4 1481.5 16490.4 1481.5 C 16490.4 1481.5 16578.2 1477.9 16607.5 1507.1 C 16636.7 1536.4 16618.4 1591.3 16618.4 1591.3 C 16618.4 1591.3 16640.4 1558.3 16687.9 1591.3 C 16735.5 1624.2 16702.6 1690 16677 1803.4 C 16651.4 1916.8 16355.1 2125.3 16340.4 2202.2 C 16325.8 2279 16322.1 2381.4 16344.1 2443.6 C 16366 2505.8 16362.4 2553.3 16362.4 2652.1 C 16362.4 2750.9 16325.8 2959.4 16325.8 3065.4 C 16325.8 3171.5 16336.1 3372.9 16362.4 3472.7 C 16801.3 5143.2 16508.7 6050.4 16501.4 6118.1 C 16494.1 6185.7 16479.4 6091.9 16516 6362.5 C 16552.6 6633.2 16457.5 7038.1 16459.9 7077.1 C 16462.4 7116.1 16477 7245.4 16461.1 7319.7 C 16790.4 7700.2 16731 9259.6 16739.1 9488.9 C 16746.7 9703 16664.8 10271.8 16664.8 10271.8 C 16651.4 10511.4 16589.2 10766.8 16550.2 10961.9 C 16511.1 11157 16461.1 11222.8 16420.9 11376.5 C 16380.7 11530.1 16338 12176.4 16323.4 12361.7 C 16308.7 12547 16299 12881.1 16318.5 12932.3 C 16338 12983.6 16311.2 13034.8 16401.4 13173.8 C 16491.6 13312.8 16535.5 13812.7 16535.5 13812.7 C 16551.9 13823.8 16562.3 13795.6 16596.5 13794.4 C 16669.6 13478.6 16764.8 13246.9 16830.6 13168.9 C 16887.7 13101.3 16933 13051.8 16947.7 12939.7 C 16962.3 12827.5 16957.4 12817.7 16986.7 12583.6 C 17015.9 12349.5 17133.7 12042.8 17196.8 11939.8 C 17254.9 11844.7 17772.2 10832.4 17813.4 10679 C 17880.4 10429 17847.3 10359.7 17845.1 10281.5 C 17840.3 10113.1 17908.5 9913.3 17937.8 9769.4 C 17967 9625.5 18024.3 9532.8 18035.3 9357.2 C 18046.3 9181.7 18052.4 8892.7 18136.5 8892.7 C 18220.6 8892.7 18211.4 9179.6 18222.5 9295.1 C 18230.9 9382.9 18224.3 9413.9 18268.2 9423.1 C 18297.5 9373.7 18345 9048.1 18383.4 8916.5 C 18421.8 8784.8 18434.6 8673.2 18531.6 8702.5 C 18594.3 8721.4 18545.1 9010.3 18537.1 9066.4 C 18521.1 9177.4 18491.3 9308.5 18479.1 9403.6 C 18527.9 9325.5 18580 9156.2 18627.9 9060.9 C 18656.2 9004.7 18720.6 8811 18835.2 8735.4 C 18876.2 8708.4 18937.6 8728.1 18936.4 8817.1 C 18935.5 8881 18838.9 9068.3 18818.1 9130.5 C 18797.4 9192.6 18745 9349.9 18712.6 9483.4 C 18732.8 9461.5 18846.2 9315.2 18876.3 9275.9 C 18902.9 9235.6 19038.2 9006.1 19062 8987.8 C 19085.8 8969.5 19140.6 8960.4 19179.1 9015.2 C 19217.5 9070.1 19074.8 9265.8 19027.2 9371.9 C 18979.7 9478 18859.6 9657.2 18855.9 9715.7 C 18852.3 9774.3 18876.3 9847.4 18876.3 9847.4 C 18876.3 9847.4 18893.7 9846.5 18965.1 9799.9 C 19024.5 9666.3 19207.1 9626.7 19275.4 9642.6 C 19343.7 9658.4 19326.6 9754.7 19302.2 9780.4" style="fill:#bdbcba;fill-opacity:1;fill-rule:nonzero;stroke:none" id="path14"/><path d="M 9362.34 9780.4 C 9337.95 9806 9207.48 9890.1 9175.78 9923 C 9144.08 9955.9 9144.08 9981.5 9056.29 10132.7 C 8968.49 10283.9 8641.1 10418.1 8604.52 10425.4 C 8567.94 10432.7 8496.61 10522.3 8478.32 10571.7 C 8402.9 10775.3 8225.92 11471.6 8149.1 12093.4 C 8072.28 12715.3 7783.3 13066.5 7626 13282.3 C 7633.32 13878.6 7496.57 14002.8 7421.15 14193.1 C 7428.47 14343.1 7480.55 14669 7445.36 15097.5 C 7417.49 15436.9 6993.16 15841.7 6729.79 15878.3 C 6559.23 15902 6465.19 15861.2 6244.49 15878.3 C 6023.79 15895.3 5610.43 16266 5588.49 16309.9 C 5566.54 16353.8 5520.2 16719.6 5554.35 16765.9 C 5588.49 16812.3 5593.36 16768.4 5627.51 16863.5 C 5661.64 16958.6 5643.24 17129.6 5643.24 17129.6 C 5643.24 17129.6 5652.3 17166.1 5658.6 17140.9 C 5662.26 17126.3 5669.57 17111 5686.03 17102.5 C 5711.58 17089.2 5743.37 17150.9 5776.87 17209.2 C 5865.97 17364.3 5949.43 17660.3 5826.26 17697.5 C 5803.84 17704.3 5771.39 17646.3 5771.39 17646.3 C 5771.39 17675.6 5800.65 17946.3 5756.76 18114.5 C 5721.6 18249.3 5589.97 18384.1 5486.06 18465.7 C 5359.13 18565.4 5100.25 18572.5 5035.8 18573 C 5034.47 18573 5032.1 18573 5030.07 18573 C 5028.04 18573 5025.67 18573 5024.34 18573 C 4959.88 18572.5 4701.01 18565.4 4574.08 18465.7 C 4470.17 18384.1 4338.54 18249.3 4303.38 18114.5 C 4259.49 17946.3 4288.75 17675.6 4288.75 17646.3 C 4288.75 17646.3 4256.3 17704.3 4233.88 17697.5 C 4110.71 17660.3 4194.16 17364.3 4283.26 17209.2 C 4316.77 17150.9 4348.55 17089.2 4374.11 17102.5 C 4390.57 17111 4397.88 17126.3 4401.54 17140.9 C 4407.84 17166.1 4416.9 17129.6 4416.9 17129.6 C 4416.9 17129.6 4398.49 16958.6 4432.63 16863.5 C 4466.77 16768.4 4471.65 16812.3 4505.79 16765.9 C 4539.93 16719.6 4493.6 16353.8 4471.65 16309.9 C 4449.7 16266 4036.35 15895.3 3815.65 15878.3 C 3594.95 15861.2 3500.91 15902 3330.35 15878.3 C 3066.97 15841.7 2642.64 15436.9 2614.78 15097.5 C 2579.59 14669 2631.67 14343.1 2638.98 14193.1 C 2563.57 14002.8 2426.82 13878.6 2434.14 13282.3 C 2276.84 13066.5 1987.86 12715.3 1911.04 12093.4 C 1834.22 11471.6 1657.24 10775.3 1581.82 10571.7 C 1563.53 10522.3 1492.2 10432.7 1455.62 10425.4 C 1419.04 10418.1 1091.65 10283.9 1003.85 10132.7 C 916.059 9981.5 916.059 9955.9 884.355 9923 C 852.656 9890.1 722.184 9806 697.797 9780.4 C 673.414 9754.7 656.34 9658.4 724.625 9642.6 C 792.906 9626.7 975.504 9666.3 1034.95 9799.9 C 1106.27 9846.5 1123.65 9847.4 1123.65 9847.4 C 1123.65 9847.4 1147.73 9774.3 1144.08 9715.7 C 1140.42 9657.2 1020.31 9478 972.758 9371.9 C 925.203 9265.8 782.543 9070.1 820.953 9015.2 C 859.359 8960.4 914.234 8969.5 938.008 8987.8 C 961.781 9006.1 1097.13 9235.6 1123.65 9275.9 C 1153.83 9315.2 1267.23 9461.5 1287.35 9483.4 C 1255.03 9349.9 1202.6 9192.6 1181.88 9130.5 C 1161.15 9068.3 1064.48 8881 1063.6 8817.1 C 1062.38 8728.1 1123.82 8708.4 1164.8 8735.4 C 1279.42 8811 1343.77 9004.7 1372.09 9060.9 C 1420.03 9156.2 1472.08 9325.5 1520.85 9403.6 C 1508.66 9308.5 1478.9 9177.4 1462.93 9066.4 C 1454.86 9010.3 1405.65 8721.4 1468.42 8702.5 C 1565.36 8673.2 1578.16 8784.8 1616.57 8916.5 C 1654.98 9048.1 1702.53 9373.7 1731.8 9423.1 C 1775.69 9413.9 1769.1 9382.9 1777.52 9295.1 C 1788.58 9179.6 1779.35 8892.7 1863.49 8892.7 C 1947.62 8892.7 1953.72 9181.7 1964.69 9357.2 C 1975.66 9532.8 2032.97 9625.5 2062.24 9769.4 C 2091.5 9913.3 2159.66 10113.1 2154.91 10281.5 C 2152.7 10359.7 2119.55 10429 2186.61 10679 C 2227.76 10832.4 2745.07 11844.7 2803.24 11939.8 C 2866.25 12042.8 2984.06 12349.5 3013.32 12583.6 C 3042.59 12817.7 3037.71 12827.5 3052.34 12939.7 C 3066.97 13051.8 3112.34 13101.3 3169.4 13168.9 C 3235.24 13246.9 3330.35 13478.6 3403.51 13794.4 C 3437.65 13795.6 3448.1 13823.8 3464.48 13812.7 C 3464.48 13812.7 3508.37 13312.8 3598.6 13173.8 C 3688.83 13034.8 3662.01 12983.6 3681.52 12932.3 C 3701.03 12881.1 3691.27 12547 3676.64 12361.7 C 3662.01 12176.4 3619.34 11530.1 3579.1 11376.5 C 3538.86 11222.8 3488.86 11157 3449.85 10961.9 C 3410.82 10766.8 3348.63 10511.4 3335.23 10271.8 C 3335.23 10271.8 3253.26 9703 3260.85 9488.9 C 3268.98 9259.6 3209.63 7700.2 3538.86 7319.7 C 3523.01 7245.4 3537.64 7116.1 3540.08 7077.1 C 3542.51 7038.1 3447.41 6633.2 3483.99 6362.5 C 3520.57 6091.9 3505.93 6185.7 3498.62 6118.1 C 3491.3 6050.4 3198.66 5143.2 3637.62 3472.7 C 3663.85 3372.9 3674.2 3171.5 3674.2 3065.4 C 3674.2 2959.4 3637.62 2750.9 3637.62 2652.1 C 3637.62 2553.3 3633.96 2505.8 3655.91 2443.6 C 3677.86 2381.4 3674.2 2279 3659.57 2202.2 C 3644.94 2125.3 3348.64 1916.8 3323.03 1803.4 C 3297.43 1690 3264.51 1624.2 3312.06 1591.3 C 3359.61 1558.3 3381.56 1591.3 3381.56 1591.3 C 3381.56 1591.3 3363.27 1536.4 3392.53 1507.1 C 3421.8 1477.9 3509.59 1481.5 3509.59 1481.5 C 3509.59 1481.5 3538.86 1474.2 3557.15 1445 C 3575.43 1415.7 3652.26 1401.1 3670.55 1419.3 C 3688.83 1437.6 3699.81 1436.1 3714.44 1411.3 C 3722.35 1397.8 3754.87 1382 3783.07 1370.4 C 3810.18 1359.1 3840.96 1361.6 3865.95 1377 L 3922.95 1412 C 3922.95 1412 3970.5 1357.2 3981.47 1353.5 C 3992.45 1349.8 4105.85 1309.6 4135.11 1353.5 C 4164.38 1397.4 4303.38 1503.5 4296.06 1627.9 C 4288.75 1752.2 4277.78 1821.7 4281.44 1865.6 C 4285.09 1909.5 4296.06 1975.4 4314.36 2041.2 C 4332.65 2107.1 4354.59 2136.3 4339.96 2260.7 C 4325.33 2385.1 4336.3 2392.4 4336.3 2414.3 C 4336.3 2436.3 4354.59 2494.8 4358.25 2560.6 C 4361.91 2626.5 4310.7 2761.8 4310.7 2761.8 C 4310.7 2761.8 4288.75 2893.5 4277.78 3072.8 C 4266.8 3252 4303.38 3958 4376.54 4192.1 C 4449.7 4426.2 4492.62 4499.5 4500.92 4557.9 C 4588.71 5176.1 4446.13 5841.8 4420.44 6077.2 C 4405.81 6211.3 4464.34 6226 4500.92 6361.3 C 4537.49 6496.7 4566.76 6833.2 4526.52 6983.2 C 4497 7093.2 4628.95 7495.3 4647.24 7619.7 C 4665.53 7744.1 4916.71 8706.1 4930.12 8878 C 4943.53 9050 4960.61 9583.2 4915.49 9663.7 C 4936.97 9663.7 4998.53 9621 5024.76 9613.5 C 5025.89 9612.6 5027.8 9612.4 5030.07 9612.6 C 5032.34 9612.4 5034.25 9612.6 5035.39 9613.5 C 5061.61 9621 5123.17 9663.7 5144.65 9663.7 C 5099.53 9583.2 5116.6 9050 5130.01 8878 C 5143.43 8706.1 5394.61 7744.1 5412.9 7619.7 C 5431.19 7495.3 5563.14 7093.2 5533.61 6983.2 C 5493.38 6833.2 5522.64 6496.7 5559.22 6361.3 C 5595.8 6226 5654.33 6211.3 5639.7 6077.2 C 5614.01 5841.8 5471.43 5176.1 5559.22 4557.9 C 5567.51 4499.5 5610.43 4426.2 5683.59 4192.1 C 5756.76 3958 5793.33 3252 5782.36 3072.8 C 5771.39 2893.5 5749.44 2761.8 5749.44 2761.8 C 5749.44 2761.8 5698.23 2626.5 5701.88 2560.6 C 5705.54 2494.8 5723.83 2436.3 5723.83 2414.3 C 5723.83 2392.4 5734.81 2385.1 5720.18 2260.7 C 5705.54 2136.3 5727.49 2107.1 5745.78 2041.2 C 5764.07 1975.4 5775.04 1909.5 5778.71 1865.6 C 5782.36 1821.7 5771.39 1752.2 5764.07 1627.9 C 5756.76 1503.5 5895.76 1397.4 5925.02 1353.5 C 5954.29 1309.6 6067.68 1349.8 6078.66 1353.5 C 6089.64 1357.2 6137.19 1412 6137.19 1412 L 6194.19 1377 C 6219.17 1361.6 6249.96 1359.1 6277.06 1370.4 C 6305.26 1382 6337.78 1397.8 6345.7 1411.3 C 6360.33 1436.1 6371.3 1437.6 6389.59 1419.3 C 6407.88 1401.1 6484.7 1415.7 6502.99 1445 C 6521.28 1474.2 6550.54 1481.5 6550.54 1481.5 C 6550.54 1481.5 6638.34 1477.9 6667.6 1507.1 C 6696.86 1536.4 6678.57 1591.3 6678.57 1591.3 C 6678.57 1591.3 6700.52 1558.3 6748.08 1591.3 C 6795.63 1624.2 6762.71 1690 6737.1 1803.4 C 6711.5 1916.8 6415.19 2125.3 6400.57 2202.2 C 6385.93 2279 6382.27 2381.4 6404.22 2443.6 C 6426.17 2505.8 6422.51 2553.3 6422.51 2652.1 C 6422.51 2750.9 6385.93 2959.4 6385.93 3065.4 C 6385.93 3171.5 6396.28 3372.9 6422.51 3472.7 C 6861.48 5143.2 6568.83 6050.4 6561.52 6118.1 C 6554.2 6185.7 6539.57 6091.9 6576.15 6362.5 C 6612.73 6633.2 6517.62 7038.1 6520.06 7077.1 C 6522.5 7116.1 6537.13 7245.4 6521.28 7319.7 C 6850.5 7700.2 6791.16 9259.6 6799.29 9488.9 C 6806.88 9703 6724.91 10271.8 6724.91 10271.8 C 6711.51 10511.4 6649.31 10766.8 6610.29 10961.9 C 6571.27 11157 6521.28 11222.8 6481.04 11376.5 C 6440.81 11530.1 6398.12 12176.4 6383.5 12361.7 C 6368.86 12547 6359.11 12881.1 6378.62 12932.3 C 6398.12 12983.6 6371.3 13034.8 6461.53 13173.8 C 6551.77 13312.8 6595.66 13812.7 6595.66 13812.7 C 6612.04 13823.8 6622.48 13795.6 6656.63 13794.4 C 6729.79 13478.6 6824.9 13246.9 6890.74 13168.9 C 6947.79 13101.3 6993.16 13051.8 7007.8 12939.7 C 7022.43 12827.5 7017.55 12817.7 7046.82 12583.6 C 7076.08 12349.5 7193.89 12042.8 7256.9 11939.8 C 7315.07 11844.7 7832.38 10832.4 7873.52 10679 C 7940.59 10429 7907.44 10359.7 7905.23 10281.5 C 7900.48 10113.1 7968.64 9913.3 7997.9 9769.4 C 8027.16 9625.5 8084.47 9532.8 8095.45 9357.2 C 8106.42 9181.7 8112.52 8892.7 8196.65 8892.7 C 8280.79 8892.7 8271.55 9179.6 8282.62 9295.1 C 8291.04 9382.9 8284.45 9413.9 8328.34 9423.1 C 8357.61 9373.7 8405.16 9048.1 8443.57 8916.5 C 8481.98 8784.8 8494.78 8673.2 8591.72 8702.5 C 8654.48 8721.4 8605.28 9010.3 8597.21 9066.4 C 8581.24 9177.4 8551.48 9308.5 8539.29 9403.6 C 8588.06 9325.5 8640.11 9156.2 8688.05 9060.9 C 8716.37 9004.7 8780.71 8811 8895.33 8735.4 C 8936.31 8708.4 8997.76 8728.1 8996.54 8817.1 C 8995.66 8881 8898.99 9068.3 8878.26 9130.5 C 8857.53 9192.6 8805.1 9349.9 8772.79 9483.4 C 8792.91 9461.5 8906.31 9315.2 8936.49 9275.9 C 8963.01 9235.6 9098.35 9006.1 9122.13 8987.8 C 9145.91 8969.5 9200.78 8960.4 9239.19 9015.2 C 9277.6 9070.1 9134.94 9265.8 9087.38 9371.9 C 9039.82 9478 8919.72 9657.2 8916.06 9715.7 C 8912.4 9774.3 8936.49 9847.4 8936.49 9847.4 C 8936.49 9847.4 8953.86 9846.5 9025.19 9799.9 C 9084.64 9666.3 9267.23 9626.7 9335.52 9642.6 C 9403.8 9658.4 9386.73 9754.7 9362.34 9780.4" style="fill:#bdbcba;fill-opacity:1;fill-rule:nonzero;stroke:none" id="path154"/></g><g style=""><title>Arms</title><g style=""><title>Triceps</title><path d="m 13119,14733.9 c -494.9,-351.1 -487.7,-575.5 -443.8,-863.3 39.9,-261.9 158,21.4 237.2,79.7 57.6,42.4 116.1,83.1 172.8,126.9 18.6,14.3 128.6,81.9 124.8,110.5 -3.2,24.3 -91,546.2 -91,546.2" style="fill:#39393a;fill-opacity:1;fill-rule:nonzero;stroke:none" id="path30"><title>Tri</title></path><path d="m 13192.2,14082.8 c -99.5,-83.3 -197.3,-169.2 -289.9,-260 -92.9,-91 -112.3,-156.8 -114,-289.5 -2.3,-191.5 -59.6,-376 -88.2,-564.1 -14.6,-95.4 -22.2,-192.7 -9.7,-288.9 14.6,-113.3 36.4,-58.5 87,-3.4 25.5,27.8 50.7,56.1 74.2,85.7 72.4,91.4 73.6,170.6 88.2,285 16,125.3 112,171 168.2,285.3 35.2,71.4 54.5,225.4 89.6,296.8 73,148.4 92.8,318 42.1,475 0,0 -47.5,-21.9 -47.5,-21.9" style="fill:#39393a;fill-opacity:1;fill-rule:nonzero;stroke:none" id="path32"><title>Tri</title></path><path d="m 12552,13936.5 c -63.4,-175.2 -179.2,-753.6 -125.6,-1002.4 12.6,-58.3 58.3,-184.2 99.4,-65.6 64.6,186.4 146,373.7 191.6,565.9 30.1,126.5 -88.6,344.8 -165.4,502.1" style="fill:#39393a;fill-opacity:1;fill-rule:nonzero;stroke:none" id="path58"><title>Tri</title></path><path d="m 16812.4,14733.9 c 494.9,-351.1 487.7,-575.5 443.8,-863.3 -39.9,-261.9 -158,21.4 -237.2,79.7 -57.6,42.4 -116.1,83.1 -172.8,126.9 -18.6,14.3 -128.6,81.9 -124.8,110.5 3.2,24.3 91,546.2 91,546.2" style="fill:#39393a;fill-opacity:1;fill-rule:nonzero;stroke:none" id="path98"><title>Tri</title></path><path d="m 16739.3,14082.8 c 99.4,-83.3 197.2,-169.2 289.8,-260 92.9,-91 112.3,-156.8 114,-289.5 2.3,-191.5 59.7,-376 88.2,-564.1 14.6,-95.4 22.2,-192.7 9.7,-288.9 -14.6,-113.3 -36.4,-58.5 -86.9,-3.4 -25.6,27.8 -50.8,56.1 -74.2,85.7 -72.5,91.4 -73.7,170.6 -88.3,285 -15.9,125.3 -112,171 -168.2,285.3 -35.2,71.4 -54.5,225.4 -89.6,296.8 -73,148.4 -92.8,318 -42.1,475 0,0 47.5,-21.9 47.6,-21.9" style="fill:#39393a;fill-opacity:1;fill-rule:nonzero;stroke:none" id="path100"><title>Tri</title></path><path d="m 17379.4,13936.5 c 63.4,-175.2 179.2,-753.6 125.6,-1002.4 -12.6,-58.3 -58.3,-184.2 -99.3,-65.6 -64.6,186.4 -146.1,373.7 -191.7,565.9 -30.1,126.5 88.6,344.8 165.4,502.1" style="fill:#39393a;fill-opacity:1;fill-rule:nonzero;stroke:none" id="path126"><title>Tri</title></path></g><g style=""><title>Biceps</title><path d="M 3211.22 14122 C 3121.57 13788.6 2776.59 13046.1 2770.97 13028.6 C 2757.24 12986 2784.18 12929.5 2819.2 12904 C 2874.05 12864.1 2931.72 12948.6 2961.29 12985 C 3161.27 13231.7 3337.87 13695.8 3366.12 13809.7 C 3399.96 13946.1 3507.56 14138.9 3463.66 14368.1 C 3419.77 14597.4 3380.75 14704.7 3361.24 14680.3 C 3335.53 14648 3329.95 14580.7 3319.95 14542.2 C 3292.92 14438.1 3278.7 14330.6 3249.13 14228 C 3238.78 14192.1 3221.03 14158.5 3211.22 14122" style="fill:#39393a;fill-opacity:1;fill-rule:nonzero;stroke:none" id="path192"><title>Bi</title></path><path d="M 2880.82 14378.7 C 2767.32 14320.2 2574.88 13985.8 2547.94 13819 C 2497.95 13509.6 2513.13 13341 2510.14 13249.6 C 2507.15 13158.1 2671.09 13176.4 2807.66 13300.8 C 2892.71 13378.2 3121.57 13898.3 3075.91 14155.1 C 3042.57 14342.7 2983.24 14422.6 2880.82 14378.7" style="fill:#39393a;fill-opacity:1;fill-rule:nonzero;stroke:none" id="path194"><title>Bi</title></path><path d="M 6847.47 14122 C 6937.11 13788.6 7282.09 13046.1 7287.71 13028.6 C 7301.44 12986 7274.5 12929.5 7239.48 12904 C 7184.63 12864.1 7126.97 12948.6 7097.39 12985 C 6897.42 13231.7 6720.81 13695.8 6692.57 13809.7 C 6658.72 13946.1 6551.12 14138.9 6595.02 14368.1 C 6638.92 14597.4 6677.93 14704.7 6697.45 14680.3 C 6723.16 14648 6728.73 14580.7 6738.73 14542.2 C 6765.76 14438.1 6779.99 14330.6 6809.55 14228 C 6819.9 14192.1 6837.66 14158.5 6847.47 14122" style="fill:#39393a;fill-opacity:1;fill-rule:nonzero;stroke:none" id="path280"><title>Bi</title></path><path d="M 7177.87 14378.7 C 7291.37 14320.2 7483.8 13985.8 7510.75 13819 C 7560.74 13509.6 7545.55 13341 7548.54 13249.6 C 7551.54 13158.1 7387.59 13176.4 7251.02 13300.8 C 7165.98 13378.2 6937.11 13898.3 6982.77 14155.1 C 7016.11 14342.7 7075.44 14422.6 7177.87 14378.7" style="fill:#39393a;fill-opacity:1;fill-rule:nonzero;stroke:none" id="path282"><title>Bi</title></path></g><g style=""><title>Hands</title><path d="m 11585.7,10429.6 c 20.2,3.5 40.5,4.4 60.9,2 116.2,-13.7 318.6,-37.2 364.8,-168.6 5.3,-15.2 5.8,-31.7 5.9,-47.9 1.6,-171.3 -19.3,-343.1 -63.4,-508.7 -8.2,-31.1 -17.9,-62.5 -36.3,-88.9 -104,-148.9 -384.4,-47.6 -501.7,26.6 -106,67.1 -265.3,171 -272.7,307.3 -6.5,121.2 66,251.3 163.6,320.5 79.9,56.6 177.3,140.1 278.9,157.7" style="fill:#39393a;fill-opacity:1;fill-rule:nonzero;stroke:none" id="path74"/><path d="m 11755.2,9483.4 c -1.4,-77.5 -2.5,-155 -2,-232.5 0.5,-49.9 2,-99.8 7,-149.4 4.1,-41.3 5.1,-117.8 31.2,-150.3 15.5,-19.4 59.1,99.7 60.6,106.9 6.7,33.8 5.5,453.7 23.8,455.9 -40.7,-4.8 -81.9,-17.1 -120.6,-30.6" style="fill:#39393a;fill-opacity:1;fill-rule:nonzero;stroke:none" id="path76"/><path d="m 11512.3,9489.7 c -32.2,-135.3 -43.5,-276.9 -66.5,-414.1 -7.5,-44.9 -15,-89.8 -22,-134.7 -9.3,-59.6 -19.4,-108.7 -12.8,-169.9 0.6,-5.7 1.5,-11.7 5.2,-16.1 16.9,-20.2 57.2,0.4 69.6,15.8 13.7,16.9 19.2,38.9 22.7,60.4 9.7,59.9 23.9,118.9 36,178.4 18.3,90.1 35.6,180.5 53.8,270.6 11.2,55.4 22.4,110.8 33.6,166.2 1.4,6.7 2.6,14 -0.3,20.2 -6.1,12.7 -118.9,24.6 -119.3,23.2" style="fill:#39393a;fill-opacity:1;fill-rule:nonzero;stroke:none" id="path78"/><path d="m 11298,9549.8 c -19.4,-20.2 -32.5,-94 -38.6,-112.4 -16.8,-50.4 -34.7,-100.4 -53.1,-150.2 -36.2,-97.8 -74.6,-194.8 -111.6,-292.3 -24.7,-65 -57.1,-127.8 -56.2,-199.1 0.4,-38.1 47.6,-19.3 67.5,-9.9 63.9,30.3 72,80.5 96,139.7 18.6,45.7 37.6,91.3 56.7,136.9 59.4,141.1 119.6,281.7 187.3,419.2 2.6,5.1 5.1,10.4 5.7,16 5.2,50.6 -113.7,56 -143.5,57.1 -3.6,0.2 -7,-1.7 -10.2,-5" style="fill:#39393a;fill-opacity:1;fill-rule:nonzero;stroke:none" id="path80"/><path d="m 11129.3,9706.2 c -34.5,-28.9 -107.2,-193.3 -119.9,-216.8 -36.5,-67.4 -72.9,-134.9 -109.3,-202.5 -29.4,-54.5 -87,-126 -93.8,-188.8 -2,-15.5 -16.3,-100.7 21.6,-83.4 5.7,2.6 10,7.4 14.1,12 100,113.4 177.8,239.2 263.6,362.9 25.2,36.3 49.2,73.5 75.9,108.7 23,30.3 62.3,58.5 80.5,91 7.8,14.1 6.9,31.3 5.7,47.4 -0.4,5.7 -0.9,11.8 -4,16.7 -2.8,4.6 -7.5,7.6 -12,10.4 -34.7,21.2 -72.7,37 -112.2,46.6 -2.8,0.7 -6.3,-0.9 -10.2,-4.2" style="fill:#39393a;fill-opacity:1;fill-rule:nonzero;stroke:none" id="path82"/><path d="m 11101.4,10212.6 c -61,-58.5 -160.9,-172.8 -202.4,-259.5 -41.5,-86.8 -219.5,-120.9 -221.9,-174.6 -2.5,-53.6 -14.7,-87.8 9.7,-90.2 24.4,-2.4 117.1,-7.3 173.2,43.9 56.1,51.2 97.5,80.5 134.1,131.7 36.6,51.2 68.3,112.2 85.4,192.6 17,80.5 65.8,192.7 65.8,192.7 l -43.9,-36.6" style="fill:#39393a;fill-opacity:1;fill-rule:nonzero;stroke:none" id="path84"/><path d="m 18345.7,10429.6 c -20.2,3.5 -40.5,4.4 -60.9,2 -116.2,-13.7 -318.6,-37.2 -364.8,-168.6 -5.3,-15.2 -5.7,-31.7 -5.9,-47.9 -1.6,-171.3 19.3,-343.1 63.4,-508.7 8.2,-31.1 17.9,-62.5 36.3,-88.9 104,-148.9 384.4,-47.6 501.8,26.6 105.9,67.1 265.2,171 272.6,307.3 6.5,121.2 -66,251.3 -163.6,320.5 -79.9,56.6 -177.3,140.1 -278.9,157.7" style="fill:#39393a;fill-opacity:1;fill-rule:nonzero;stroke:none" id="path142"/><path d="m 18176.2,9483.4 c 1.4,-77.5 2.5,-155 2,-232.5 -0.5,-49.9 -2,-99.8 -7,-149.4 -4.1,-41.3 -5.1,-117.8 -31.2,-150.3 -15.5,-19.4 -59.1,99.7 -60.6,106.9 -6.7,33.8 -5.5,453.7 -23.8,455.9 40.7,-4.8 81.9,-17.1 120.6,-30.6" style="fill:#39393a;fill-opacity:1;fill-rule:nonzero;stroke:none" id="path144"/><path d="m 18419.1,9489.7 c 32.2,-135.3 43.5,-276.9 66.5,-414.1 7.5,-44.9 15.1,-89.8 22,-134.7 9.3,-59.6 19.4,-108.7 12.8,-169.9 -0.6,-5.7 -1.5,-11.7 -5.2,-16.1 -16.9,-20.2 -57.2,0.4 -69.6,15.8 -13.7,16.9 -19.2,38.9 -22.7,60.4 -9.7,59.9 -23.9,118.9 -36,178.4 -18.3,90.1 -35.6,180.5 -53.8,270.6 -11.2,55.4 -22.4,110.8 -33.6,166.2 -1.3,6.7 -2.6,14 0.3,20.2 6.1,12.7 118.9,24.6 119.3,23.2" style="fill:#39393a;fill-opacity:1;fill-rule:nonzero;stroke:none" id="path146"/><path d="m 18633.4,9549.8 c 19.4,-20.2 32.5,-94 38.6,-112.4 16.8,-50.4 34.7,-100.4 53.1,-150.2 36.2,-97.8 74.6,-194.8 111.6,-292.3 24.7,-65 57.1,-127.8 56.2,-199.1 -0.4,-38.1 -47.6,-19.3 -67.5,-9.9 -63.9,30.3 -72,80.5 -96,139.7 -18.6,45.7 -37.6,91.3 -56.7,136.9 -59.4,141.1 -119.6,281.7 -187.3,419.2 -2.5,5.1 -5.1,10.4 -5.7,16 -5.2,50.6 113.7,56 143.6,57.1 3.5,0.2 6.9,-1.7 10.1,-5" style="fill:#39393a;fill-opacity:1;fill-rule:nonzero;stroke:none" id="path148"/><path d="m 18802.1,9706.2 c 34.5,-28.9 107.2,-193.3 119.9,-216.8 36.5,-67.4 72.9,-134.9 109.3,-202.5 29.4,-54.5 87,-126 93.8,-188.8 2,-15.5 16.3,-100.7 -21.6,-83.4 -5.7,2.6 -10,7.4 -14.1,12 -100,113.4 -177.8,239.2 -263.6,362.9 -25.2,36.3 -49.2,73.5 -75.9,108.7 -22.9,30.3 -62.3,58.5 -80.4,91 -7.9,14.1 -7,31.3 -5.8,47.4 0.4,5.7 0.9,11.8 4,16.7 2.8,4.6 7.5,7.6 12,10.4 34.7,21.2 72.7,37 112.2,46.6 2.8,0.7 6.3,-0.9 10.2,-4.2" style="fill:#39393a;fill-opacity:1;fill-rule:nonzero;stroke:none" id="path150"/><path d="m 18830,10212.6 c 61,-58.5 160.9,-172.8 202.4,-259.5 41.5,-86.8 219.5,-120.9 221.9,-174.6 2.5,-53.6 14.7,-87.8 -9.7,-90.2 -24.4,-2.4 -117.1,-7.3 -173.2,43.9 -56.1,51.2 -97.5,80.5 -134.1,131.7 -36.6,51.2 -68.3,112.2 -85.4,192.6 -17,80.5 -65.8,192.7 -65.8,192.7 l 43.9,-36.6" style="fill:#39393a;fill-opacity:1;fill-rule:nonzero;stroke:none" id="path152"/><path d="m 1645.85,10429.6 c 20.16,3.5 40.48,4.4 60.87,2 116.2,-13.7 318.67,-37.2 364.81,-168.6 5.36,-15.2 5.76,-31.7 5.91,-47.9 1.55,-171.3 -19.26,-343.1 -63.35,-508.7 -8.29,-31.1 -17.95,-62.5 -36.39,-88.9 -104,-148.9 -384.38,-47.6 -501.7,26.6 -105.97,67.1 -265.28,171 -272.63,307.3 -6.54,121.2 65.95,251.3 163.54,320.5 79.94,56.6 177.32,140.1 278.94,157.7" style="fill: rgb(57, 57, 58); fill-opacity: 1; fill-rule: nonzero; stroke: none;" id="path220"/><path d="m 1815.35,9483.4 c -1.39,-77.5 -2.47,-155 -1.98,-232.5 0.46,-49.9 1.95,-99.8 6.95,-149.4 4.16,-41.3 5.15,-117.8 31.19,-150.3 15.49,-19.4 59.15,99.7 60.59,106.9 6.78,33.8 5.59,453.7 23.88,455.9 -40.77,-4.8 -81.95,-17.1 -120.63,-30.6" style="fill:#39393a;fill-opacity:1;fill-rule:nonzero;stroke:none" id="path222"/><path d="m 1572.47,9489.7 c -32.24,-135.3 -43.51,-276.9 -66.49,-414.1 -7.52,-44.9 -15.09,-89.8 -22.06,-134.7 -9.23,-59.6 -19.4,-108.7 -12.75,-169.9 0.62,-5.7 1.46,-11.7 5.13,-16.1 16.95,-20.2 57.23,0.4 69.62,15.8 13.68,16.9 19.22,38.9 22.72,60.4 9.73,59.9 23.92,118.9 36.01,178.4 18.31,90.1 35.55,180.5 53.78,270.6 11.2,55.4 22.4,110.8 33.6,166.2 1.36,6.7 2.66,14 -0.31,20.2 -6.09,12.7 -118.93,24.6 -119.25,23.2" style="fill:#39393a;fill-opacity:1;fill-rule:nonzero;stroke:none" id="path224"/><path d="m 1358.1,9549.8 c -19.37,-20.2 -32.42,-94 -38.56,-112.4 -16.82,-50.4 -34.7,-100.4 -53.13,-150.2 -36.2,-97.8 -74.56,-194.8 -111.58,-292.3 -24.69,-65 -57.08,-127.8 -56.23,-199.1 0.46,-38.1 47.64,-19.3 67.56,-9.9 63.87,30.3 71.98,80.5 95.98,139.7 18.56,45.7 37.56,91.3 56.71,136.9 59.39,141.1 119.59,281.7 187.32,419.2 2.52,5.1 5.09,10.4 5.68,16 5.17,50.6 -113.68,56 -143.55,57.1 -3.58,0.2 -6.98,-1.7 -10.2,-5" style="fill:#39393a;fill-opacity:1;fill-rule:nonzero;stroke:none" id="path226"/><path d="m 1189.39,9706.2 c -34.44,-28.9 -107.14,-193.3 -119.85,-216.8 -36.5,-67.4 -72.915,-134.9 -109.302,-202.5 -29.386,-54.5 -86.976,-126 -93.769,-188.8 -2.059,-15.5 -16.34,-100.7 21.562,-83.4 5.684,2.6 10.012,7.4 14.141,12 100.008,113.4 177.738,239.2 263.608,362.9 25.18,36.3 49.13,73.5 75.82,108.7 22.99,30.3 62.35,58.5 80.49,91 7.89,14.1 6.93,31.3 5.75,47.4 -0.43,5.7 -0.93,11.8 -3.99,16.7 -2.82,4.6 -7.47,7.6 -12.02,10.4 -34.69,21.2 -72.69,37 -112.22,46.6 -2.8,0.7 -6.26,-0.9 -10.22,-4.2" style="fill:#39393a;fill-opacity:1;fill-rule:nonzero;stroke:none" id="path228"/><path d="m 1161.55,10212.6 c -60.96,-58.5 -160.95,-172.8 -202.409,-259.5 -41.453,-86.8 -219.477,-120.9 -221.918,-174.6 -2.438,-53.6 -14.633,-87.8 9.754,-90.2 24.386,-2.4 117.054,-7.3 173.144,43.9 56.09,51.2 97.549,80.5 134.129,131.7 36.58,51.2 68.28,112.2 85.35,192.6 17.07,80.5 65.85,192.7 65.85,192.7 l -43.9,-36.6" style="fill:#39393a;fill-opacity:1;fill-rule:nonzero;stroke:none" id="path230"/><path d="m 8412.84,10429.6 c -20.16,3.5 -40.49,4.4 -60.87,2 -116.2,-13.7 -318.67,-37.2 -364.82,-168.6 -5.35,-15.2 -5.76,-31.7 -5.91,-47.9 -1.55,-171.3 19.26,-343.1 63.36,-508.7 8.28,-31.1 17.95,-62.5 36.38,-88.9 104,-148.9 384.39,-47.6 501.71,26.6 105.97,67.1 265.27,171 272.63,307.3 6.53,121.2 -65.96,251.3 -163.55,320.5 -79.93,56.6 -177.32,140.1 -278.93,157.7" style="fill:#39393a;fill-opacity:1;fill-rule:nonzero;stroke:none" id="path308"/><path d="m 8243.33,9483.4 c 1.4,-77.5 2.48,-155 1.98,-232.5 -0.46,-49.9 -1.95,-99.8 -6.94,-149.4 -4.16,-41.3 -5.16,-117.8 -31.19,-150.3 -15.5,-19.4 -59.15,99.7 -60.6,106.9 -6.78,33.8 -5.58,453.7 -23.88,455.9 40.78,-4.8 81.95,-17.1 120.63,-30.6" style="fill:#39393a;fill-opacity:1;fill-rule:nonzero;stroke:none" id="path310"/><path d="m 8486.22,9489.7 c 32.24,-135.3 43.51,-276.9 66.48,-414.1 7.52,-44.9 15.09,-89.8 22.07,-134.7 9.23,-59.6 19.39,-108.7 12.74,-169.9 -0.62,-5.7 -1.46,-11.7 -5.13,-16.1 -16.94,-20.2 -57.22,0.4 -69.62,15.8 -13.67,16.9 -19.21,38.9 -22.71,60.4 -9.74,59.9 -23.93,118.9 -36.01,178.4 -18.32,90.1 -35.55,180.5 -53.78,270.6 -11.2,55.4 -22.4,110.8 -33.6,166.2 -1.37,6.7 -2.67,14 0.3,20.2 6.09,12.7 118.93,24.6 119.26,23.2" style="fill:#39393a;fill-opacity:1;fill-rule:nonzero;stroke:none" id="path312"/><path d="m 8700.59,9549.8 c 19.37,-20.2 32.42,-94 38.56,-112.4 16.82,-50.4 34.7,-100.4 53.13,-150.2 36.19,-97.8 74.56,-194.8 111.57,-292.3 24.69,-65 57.09,-127.8 56.23,-199.1 -0.46,-38.1 -47.63,-19.3 -67.56,-9.9 -63.87,30.3 -71.98,80.5 -95.98,139.7 -18.55,45.7 -37.56,91.3 -56.71,136.9 -59.39,141.1 -119.59,281.7 -187.31,419.2 -2.53,5.1 -5.1,10.4 -5.68,16 -5.18,50.6 113.68,56 143.55,57.1 3.57,0.2 6.97,-1.7 10.2,-5" style="fill:#39393a;fill-opacity:1;fill-rule:nonzero;stroke:none" id="path314"/><path d="m 8869.29,9706.2 c 34.45,-28.9 107.15,-193.3 119.86,-216.8 36.5,-67.4 72.91,-134.9 109.3,-202.5 29.38,-54.5 86.97,-126 93.77,-188.8 2.06,-15.5 16.34,-100.7 -21.57,-83.4 -5.68,2.6 -10.01,7.4 -14.14,12 -100.01,113.4 -177.73,239.2 -263.6,362.9 -25.19,36.3 -49.14,73.5 -75.83,108.7 -22.98,30.3 -62.34,58.5 -80.49,91 -7.88,14.1 -6.92,31.3 -5.74,47.4 0.42,5.7 0.93,11.8 3.99,16.7 2.82,4.6 7.46,7.6 12.02,10.4 34.68,21.2 72.69,37 112.21,46.6 2.8,0.7 6.26,-0.9 10.22,-4.2" style="fill:#39393a;fill-opacity:1;fill-rule:nonzero;stroke:none" id="path316"/><path d="m 8897.13,10212.6 c 60.97,-58.5 160.96,-172.8 202.41,-259.5 41.46,-86.8 219.48,-120.9 221.92,-174.6 2.44,-53.6 14.63,-87.8 -9.75,-90.2 -24.39,-2.4 -117.06,-7.3 -173.15,43.9 -56.09,51.2 -97.54,80.5 -134.13,131.7 -36.57,51.2 -68.28,112.2 -85.35,192.6 -17.07,80.5 -65.84,192.7 -65.84,192.7 l 43.89,-36.6" style="fill:#39393a;fill-opacity:1;fill-rule:nonzero;stroke:none" id="path318"/></g><g style=""><title>Forearms</title><path d="m 12337.2,12773.6 c 5.9,-64.5 16.8,-128.4 18,-193.9 2.3,-125.6 -40.1,-387.4 79.1,-476.9 105.6,99.9 148.1,276.2 140,416.8 -4.7,80.6 -80.7,134.1 -130.3,192.4 -37.6,44.2 -74.4,89 -110.5,134.4 0,-24.5 1.5,-48.7 3.7,-72.8" style="fill:#39393a;fill-opacity:1;fill-rule:nonzero;stroke:none" id="path60"/><path d="M 12133.8 12631.8 C 12094.8 12305 11909.4 10829.6 11787.5 10512.6 C 11777.7 10361.4 12246.6 11289.9 12301.4 11599 C 12344.9 11844.1 12270.4 12319.6 12216.7 12436.7 C 12163 12553.7 12133.8 12631.8 12133.8 12631.8" style="fill:#39393a;fill-opacity:1;fill-rule:nonzero;stroke:none" id="path62"/><path d="M 12643.5 12314.8 C 12597.1 12278.2 12571 12218.1 12568.8 12212.3 C 12349.1 11639.1 12259.6 11196.1 11997.2 10688.2 C 11979.7 10654.2 11945.7 10559.2 11904.5 10546.8 C 12050.9 10590.7 12277.7 11221 12565.7 11723.6 C 12628.3 11832.7 12804.4 12270.8 12819.1 12329.4 C 12830.1 12373.7 12682.2 12345.3 12643.5 12314.8" style="fill:#39393a;fill-opacity:1;fill-rule:nonzero;stroke:none" id="path64"/><path d="M 11964.3 12317.2 C 11891.1 12014.8 11794.7 11072.2 11580.1 10512.6 C 11755.7 10629.6 11863.1 11046.6 11892.4 11217.3 C 11954.4 11579 12003.9 11977.5 12028.6 12343.1 C 12031 12379.2 12032 12444.5 11988.9 12455.7 C 11968.1 12414.7 11971.1 12362.3 11964.3 12317.2" style="fill:#39393a;fill-opacity:1;fill-rule:nonzero;stroke:none" id="path66"/><path d="M 17594.2 12773.6 C 17588.3 12709.1 17577.4 12645.2 17576.2 12579.7 C 17573.9 12454.1 17616.3 12192.3 17497.1 12102.8 C 17391.5 12202.7 17349 12379 17357.1 12519.6 C 17361.8 12600.2 17437.8 12653.7 17487.4 12712 C 17525 12756.2 17561.8 12801 17597.9 12846.4 C 17597.9 12821.9 17596.4 12797.7 17594.2 12773.6" style="fill:#39393a;fill-opacity:1;fill-rule:nonzero;stroke:none" id="path128"/><path d="M 17797.6 12631.8 C 17836.6 12305 18022 10829.6 18143.9 10512.6 C 18153.7 10361.4 17684.8 11289.9 17630 11599 C 17586.5 11844.1 17661.1 12319.6 17714.7 12436.7 C 17768.4 12553.7 17797.6 12631.8 17797.6 12631.8" style="fill:#39393a;fill-opacity:1;fill-rule:nonzero;stroke:none" id="path130"/><path d="M 17287.9 12314.8 C 17334.3 12278.2 17360.4 12218.1 17362.6 12212.3 C 17582.3 11639.1 17671.8 11196.1 17934.2 10688.2 C 17951.7 10654.2 17985.7 10559.2 18026.9 10546.8 C 17880.5 10590.7 17653.7 11221 17365.7 11723.6 C 17303.1 11832.7 17127 12270.8 17112.4 12329.4 C 17101.3 12373.7 17249.2 12345.3 17287.9 12314.8" style="fill:#39393a;fill-opacity:1;fill-rule:nonzero;stroke:none" id="path132"/><path d="M 17967.1 12317.2 C 18040.3 12014.8 18136.7 11072.2 18351.3 10512.6 C 18175.7 10629.6 18068.3 11046.6 18039.1 11217.3 C 17977 11579 17927.5 11977.5 17902.8 12343.1 C 17900.4 12379.2 17899.4 12444.5 17942.5 12455.7 C 17963.3 12414.7 17960.3 12362.3 17967.1 12317.2" style="fill:#39393a;fill-opacity:1;fill-rule:nonzero;stroke:none" id="path134"/><path d="M 2458.93 13112.6 C 2581.28 13173.5 2521.8 12372.1 2436.98 12161.1 C 2346.75 11936.7 2229.01 11637.8 2115.08 11363.7 C 2046.95 11199.7 1854.14 10605.2 1771.22 10566.2 C 1688.31 10527.2 1766.34 10919.8 1805.37 11075.9 C 1844.38 11232 1956.56 11881 1990.7 12002.8 C 2024.84 12124.5 2000.46 12464 2088.25 12589.3 C 2176.04 12714.7 2278.47 13022.7 2458.93 13112.6" style="fill:#39393a;fill-opacity:1;fill-rule:nonzero;stroke:none" id="path196"/><path d="m 2791.81,12709.8 c 63.4,-239 -35.97,-466.4 -84.74,-607.8 -48.78,-141.5 -144.5,-279.9 -232.29,-416.4 -87.79,-136.6 -329.59,-704.9 -386.53,-856 -136.46,-362.2 -202.41,-258.5 -148.76,-121.9 53.65,136.5 154.86,446.2 218.26,592.6 63.41,146.3 81.7,233 157.3,398.7 74.38,163 159.73,337.7 213.38,484.1 53.65,146.3 78.04,502.3 165.83,526.7 87.8,24.4 97.55,0 97.55,0" style="fill:#39393a;fill-opacity:1;fill-rule:nonzero;stroke:none" id="path198"/><path d="M 2569.89 11703.3 C 2462.15 11566.7 2378.84 11387.3 2324.8 11261.2 C 2274.86 11144.7 2226.9 11027.3 2180.5 10909.3 C 2137.49 10800 2093.58 10690 2059.94 10577.3 C 2054.33 10558.6 2037.62 10530.9 2045.57 10511.2 C 2065.81 10527.6 2075.64 10552.8 2088.41 10574.7 C 2101.82 10597.7 2114.49 10621.1 2126.75 10644.7 C 2155.75 10700.5 2182.55 10757.4 2208.65 10814.6 C 2267.87 10944.4 2323.18 11075.9 2380.07 11206.8 C 2428.96 11319.2 2477.4 11432.8 2536.46 11540.3 C 2539.39 11545.7 2542.37 11551 2545.39 11556.3 C 2686.83 11805.1 2730.72 11873.4 2789.25 12019.7 C 2847.78 12166 2974.59 12405 2955.08 12448.9 C 2941.49 12479.4 2892.48 12528.4 2871.06 12544 C 2863.59 12549.4 2857.13 12502 2856.44 12492.8 C 2833.33 12188 2667.45 11826.9 2569.89 11703.3" style="fill:#39393a;fill-opacity:1;fill-rule:nonzero;stroke:none" id="path200"/><path d="M 7599.76 13112.6 C 7477.4 13173.5 7536.89 12372.1 7621.7 12161.1 C 7711.93 11936.7 7829.68 11637.8 7943.61 11363.7 C 8011.74 11199.7 8204.55 10605.2 8287.47 10566.2 C 8370.38 10527.2 8292.34 10919.8 8253.32 11075.9 C 8214.3 11232 8102.12 11881 8067.98 12002.8 C 8033.84 12124.5 8058.23 12464 7970.43 12589.3 C 7882.64 12714.7 7780.22 13022.7 7599.76 13112.6" style="fill:#39393a;fill-opacity:1;fill-rule:nonzero;stroke:none" id="path284"/><path d="M 7266.87 12709.8 C 7203.47 12470.8 7302.85 12243.4 7351.62 12102 C 7400.39 11960.5 7496.11 11822.1 7583.91 11685.6 C 7671.7 11549 7913.5 10980.7 7970.43 10829.6 C 8106.89 10467.4 8172.85 10571.1 8119.19 10707.7 C 8065.54 10844.2 7964.34 11153.9 7900.93 11300.3 C 7837.53 11446.6 7819.24 11533.3 7743.64 11699 C 7669.26 11862 7583.91 12036.7 7530.25 12183.1 C 7476.6 12329.4 7452.22 12685.4 7364.42 12709.8 C 7276.63 12734.2 7266.87 12709.8 7266.87 12709.8" style="fill:#39393a;fill-opacity:1;fill-rule:nonzero;stroke:none" id="path286"/><path d="M 7488.8 11703.3 C 7596.54 11566.7 7679.84 11387.3 7733.88 11261.2 C 7783.83 11144.7 7831.78 11027.3 7878.19 10909.3 C 7921.2 10800 7965.11 10690 7998.74 10577.3 C 8004.35 10558.6 8021.07 10530.9 8013.11 10511.2 C 7992.87 10527.6 7983.04 10552.8 7970.28 10574.7 C 7956.86 10597.7 7944.2 10621.1 7931.93 10644.7 C 7902.94 10700.5 7876.13 10757.4 7850.03 10814.6 C 7790.81 10944.4 7735.5 11075.9 7678.61 11206.8 C 7629.73 11319.2 7581.29 11432.8 7522.23 11540.3 C 7519.29 11545.7 7516.32 11551 7513.3 11556.3 C 7371.86 11805.1 7327.96 11873.4 7269.43 12019.7 C 7210.91 12166 7084.1 12405 7103.6 12448.9 C 7117.19 12479.4 7166.21 12528.4 7187.62 12544 C 7195.09 12549.4 7201.55 12502 7202.25 12492.8 C 7225.36 12188 7391.24 11826.9 7488.8 11703.3" style="fill:#39393a;fill-opacity:1;fill-rule:nonzero;stroke:none" id="path288"/></g><g style=""><title>Delts</title><g style=""><title>RearDelts</title><path d="m 13507.7,15614.4 c -48.6,31.2 -116.1,68.4 -126,71.8 -73.6,25.2 -154.5,29.7 -230.9,16.7 -125.3,-21.4 -253.6,-125.9 -347.1,-208.1 -60.7,-53.3 -117.6,-148.1 -147.4,-223.1 -45.9,-116.1 -28.4,-213.7 -28.1,-335.5 0.3,-144 0.5,-288 0.8,-432 0,-1.2 150.8,60.4 164.8,68.3 78.4,43.8 147.6,101.1 213.8,161.4 57.9,52.7 135.8,124.6 135.8,209.8 0,128.2 30.1,257.7 99.6,366.7 78.1,122.5 206.9,171.7 314.9,261.7 5.2,4.3 -18.5,22 -50.2,42.3" style="fill:#39393a;fill-opacity:1;fill-rule:nonzero;stroke:none" id="path26"><title>RDelt</title></path><path d="m 16423.7,15614.4 c 48.7,31.2 116.1,68.4 126,71.8 73.6,25.2 154.5,29.7 230.9,16.7 125.3,-21.4 253.6,-125.9 347.2,-208.1 60.6,-53.3 117.5,-148.1 147.3,-223.1 45.9,-116.1 28.4,-213.7 28.1,-335.5 -0.3,-144 -0.5,-288 -0.8,-432 0,-1.2 -150.8,60.4 -164.8,68.3 -78.4,43.8 -147.6,101.1 -213.8,161.4 -57.9,52.7 -135.8,124.6 -135.8,209.8 0,128.2 -30.1,257.7 -99.6,366.7 -78.1,122.5 -206.9,171.7 -314.9,261.7 -5.2,4.3 18.5,22 50.2,42.3" style="fill:#39393a;fill-opacity:1;fill-rule:nonzero;stroke:none" id="path94"><title>RDelt</title></path></g><g style=""><title>FrontDelts</title><path d="m 3847.89,15575.3 c -44.03,-28.7 -104.38,-41.9 -152.15,-64 -140.72,-64.8 -271.26,-135.1 -269.94,-307.7 1.03,-134.4 17.14,-279.8 -55.62,-392.7 -46.32,-71.9 -107.44,-132.2 -161.64,-197.9 -53.58,-64.9 -85.2,-123.8 -176.52,-76.1 -214.22,112 -362.23,332.1 -343.3,578.6 10.46,136.3 72.3,267.9 169.34,364 107.74,106.7 212.4,211.6 351.52,279.1 190.66,92.5 402.93,58.5 574.77,-60 62.19,-42.9 63.54,-123.3 63.54,-123.3" style="fill:#39393a;fill-opacity:1;fill-rule:nonzero;stroke:none" id="path190"><title>Delt</title></path><path d="M 6210.8 15575.3 C 6254.82 15546.6 6315.18 15533.4 6362.94 15511.3 C 6503.66 15446.5 6634.2 15376.2 6632.89 15203.6 C 6631.86 15069.2 6615.74 14923.8 6688.51 14810.9 C 6734.82 14739 6795.95 14678.7 6850.14 14613 C 6903.72 14548.1 6935.34 14489.2 7026.67 14536.9 C 7240.88 14648.9 7388.89 14869 7369.97 15115.5 C 7359.5 15251.8 7297.67 15383.4 7200.62 15479.5 C 7092.89 15586.2 6988.23 15691.1 6849.1 15758.6 C 6658.45 15851.1 6446.18 15817.1 6274.34 15698.6 C 6212.15 15655.7 6210.8 15575.3 6210.8 15575.3" style="fill:#39393a;fill-opacity:1;fill-rule:nonzero;stroke:none" id="path278"><title>Delt</title></path></g></g></g><g><title>Legs</title><g style=""><title>Hamstrings</title><path d="m 14349.3,9132.3 c 87.8,-78.1 333.1,-509.9 255.1,-929.3 -78,-419.5 121.1,268.5 165.6,537.9 35.2,212.9 57.1,375.5 17.1,410.9 -62.9,55.5 -437.8,-19.5 -437.8,-19.5" style="fill:#39393a;fill-opacity:1;fill-rule:nonzero;stroke:none" id="path38"/><path d="m 13294.6,9627.3 c -29.3,-190.2 39,-1629 151.2,-2063.1 112.2,-434.1 86.7,-170.7 62.9,43.9 -23.9,214.6 44.4,765.7 54.2,960.8 9.7,195.1 -29.3,678 -112.2,887.7 -82.9,209.7 -68.3,219.5 -117.1,292.7 -48.8,73.1 -39,-122 -39,-122" style="fill:#39393a;fill-opacity:1;fill-rule:nonzero;stroke:none" id="path40"/><path d="m 13593.6,6949.7 c -50.6,-248.4 -79.5,-687.7 -103.9,-707.3 209.7,224.4 442.7,1050.4 497.5,1326.7 54,272.9 54.8,1171.2 79.2,1317.5 24.4,146.3 -1.9,135.5 -24.5,214 -33,114 -167.1,299.2 -236,368.2 -263.4,263.4 -57.7,-1760.6 -212.3,-2519.1" style="fill:#39393a;fill-opacity:1;fill-rule:nonzero;stroke:none" id="path42"/><path d="m 14533.4,8198.3 c 0,-258.5 -234.1,-931.6 -219.4,-1234 14.6,-302.4 -46.6,-829.2 -56.3,-873.1 102.4,239 151.1,756 156,1009.7 4.9,253.6 173.4,692.5 153.9,838.9 -19.5,146.3 -34.2,258.5 -34.2,258.5" style="fill:#39393a;fill-opacity:1;fill-rule:nonzero;stroke:none" id="path44"/><path d="m 14168.2,8919.3 c -46.2,-199.2 -230.2,-2350 -46.2,-2589.1 78.1,131.7 135.3,1282.8 313.4,1746.1 92.5,240.6 -7.3,553.6 -50.7,719.4 -14.1,53.8 -153.7,280.5 -153.7,280.5 l -62.8,-156.9" style="fill:#39393a;fill-opacity:1;fill-rule:nonzero;stroke:none" id="path56"/><path d="m 15582.1,9132.3 c -87.8,-78.1 -333.1,-509.9 -255.1,-929.3 78,-419.5 -121.1,268.5 -165.6,537.9 -35.2,212.9 -57.1,375.5 -17.1,410.9 62.9,55.5 437.8,-19.5 437.8,-19.5" style="fill:#39393a;fill-opacity:1;fill-rule:nonzero;stroke:none" id="path106"/><path d="m 16636.8,9627.3 c 29.3,-190.2 -39,-1629 -151.2,-2063.1 -112.2,-434.1 -86.7,-170.7 -62.9,43.9 23.9,214.6 -44.4,765.7 -54.1,960.8 -9.8,195.1 29.2,678 112.1,887.7 83,209.7 68.3,219.5 117.1,292.7 48.8,73.1 39,-122 39,-122" style="fill:#39393a;fill-opacity:1;fill-rule:nonzero;stroke:none" id="path108"/><path d="m 16337.8,6949.7 c 50.6,-248.4 79.5,-687.7 103.9,-707.3 -209.7,224.4 -442.7,1050.4 -497.5,1326.7 -54,272.9 -54.8,1171.2 -79.2,1317.5 -24.4,146.3 1.9,135.5 24.5,214 33,114 167.1,299.2 236.1,368.2 263.3,263.4 57.6,-1760.6 212.2,-2519.1" style="fill:#39393a;fill-opacity:1;fill-rule:nonzero;stroke:none" id="path110"/><path d="m 15398,8198.3 c 0,-258.5 234.1,-931.6 219.4,-1234 -14.6,-302.4 46.6,-829.2 56.3,-873.1 -102.4,239 -151.1,756 -156,1009.7 -4.8,253.6 -173.4,692.5 -153.9,838.9 19.5,146.3 34.2,258.5 34.2,258.5" style="fill:#39393a;fill-opacity:1;fill-rule:nonzero;stroke:none" id="path112"/><path d="m 15763.3,8919.3 c 46.1,-199.2 230.1,-2350 46.1,-2589.1 -78.1,131.7 -135.3,1282.8 -313.4,1746.1 -92.5,240.6 7.3,553.6 50.7,719.4 14.1,53.8 153.7,280.5 153.7,280.5 l 62.9,-156.9" style="fill:#39393a;fill-opacity:1;fill-rule:nonzero;stroke:none" id="path124"/></g><g style=""><title>Glutes</title><path d="M 14048.6 11010.1 C 13782.9 10851.5 13633.3 10739.4 13543.3 10593 C 13453.4 10446.7 13470.2 10183.4 13592.1 9920 C 13714.1 9656.6 13967.7 9361.5 14099.4 9361.5 C 14231 9361.5 14446.9 9194.2 14670 9279.8 C 14863.8 9354.1 14788.7 9488 14808.5 9663.1 C 14836.2 9907.3 14896.8 9893.1 14929.7 10472.3 C 14937.7 10611.8 14906 10844.2 14867 10922.3 C 14827.9 11000.3 14748 11100.3 14713.9 11144.2 C 14679.8 11188.1 14657.8 11284.5 14372.5 11158.8 C 14254.3 11106.8 14218.6 11111.5 14048.6 11010.1" style="fill:#39393a;fill-opacity:1;fill-rule:nonzero;stroke:none" id="path20"><title>Glute</title></path><path d="M 14440.8 11349 C 14362.7 11392.9 13993 11505.2 13845.7 11422.2 C 13711.6 11346.6 13519 10911.2 13528.7 10761.3 C 13688.2 10858.9 13998.2 11113.8 14139.6 11171 C 14281 11228.2 14499.3 11285.6 14499.3 11285.6 L 14440.8 11349" style="fill:#39393a;fill-opacity:1;fill-rule:nonzero;stroke:none" id="path68"/><path d="M 15882.8 11010.1 C 16148.5 10851.5 16298.1 10739.4 16388.1 10593 C 16478 10446.7 16461.2 10183.4 16339.3 9920 C 16217.4 9656.6 15963.7 9361.5 15832 9361.5 C 15700.4 9361.5 15484.5 9194.2 15261.4 9279.8 C 15067.6 9354.1 15142.7 9488 15122.9 9663.1 C 15095.2 9907.3 15034.6 9893.1 15001.7 10472.3 C 14993.7 10611.8 15025.4 10844.2 15064.5 10922.3 C 15103.5 11000.3 15183.4 11100.3 15217.5 11144.2 C 15251.6 11188.1 15273.6 11284.5 15558.9 11158.8 C 15677.1 11106.8 15712.8 11111.5 15882.8 11010.1" style="fill:#39393a;fill-opacity:1;fill-rule:nonzero;stroke:none" id="path88"><title>Glute</title></path><path d="M 15490.6 11349 C 15568.7 11392.9 15938.4 11505.2 16085.7 11422.2 C 16219.8 11346.6 16412.4 10911.2 16402.7 10761.3 C 16243.2 10858.9 15933.3 11113.8 15791.8 11171 C 15650.4 11228.2 15432.1 11285.6 15432.1 11285.6 L 15490.6 11349" style="fill:#39393a;fill-opacity:1;fill-rule:nonzero;stroke:none" id="path136"/></g><g style=""><title>Knees</title><path d="m 3890.43,6843.6 c 76.82,0 332.99,-18.3 362.2,-47.6 29.21,-29.2 84.08,-435.3 -76.87,-654.8 -160.96,-219.4 -299.96,-106 -343.86,22 -43.89,128 -179.24,486.5 -128.03,596.2 51.22,109.8 186.56,84.2 186.56,84.2" style="fill:#39393a;fill-opacity:1;fill-rule:nonzero;stroke:none" id="path202"/><path d="m 6168.25,6843.6 c -76.82,0 -332.99,-18.3 -362.2,-47.6 -29.2,-29.2 -84.08,-435.3 76.88,-654.8 160.95,-219.4 299.96,-106 343.85,22 43.9,128 179.24,486.5 128.03,596.2 -51.21,109.8 -186.56,84.2 -186.56,84.2" style="fill:#39393a;fill-opacity:1;fill-rule:nonzero;stroke:none" id="path290"/></g><g style=""><title>Calfs</title><path d="m 13333.6,1716.3 c 73.2,0 760.9,14.6 785.3,-43.9 24.4,-58.6 104.3,-200 -43,-200 -147.2,0 -552.1,68.3 -625.2,97.5 -73.2,29.3 -161,102.5 -161,102.5 l 43.9,43.9" style="fill:#39393a;fill-opacity:1;fill-rule:nonzero;stroke:none" id="path18"/><path d="m 13689.7,6342.4 c -395.1,-460.9 -296.4,-1590 -230.5,-1889.9 65.8,-300 74.4,-352.6 212.5,-350.7 54.2,0.7 176.5,77.5 154.5,326.3 -21.9,248.7 4.9,938.2 4.9,1214.4 0,161 43.9,945.2 43.9,945.2 l -185.3,-245.3" style="fill:#39393a;fill-opacity:1;fill-rule:nonzero;stroke:none" id="path46"/><path d="m 13946.6,6018.1 c 54.6,-570.7 11.3,-1282.3 0,-1497.4 -10.9,-204.8 -21.2,-399.5 76.4,-419 97.5,-19.5 332.4,291 376.3,576.3 34.9,226.8 -26.2,710.8 -65.8,925.5 -56.2,304.2 -126.2,414.6 -202.1,570.7 -75.9,156 -147.9,331.6 -160.7,404.8 -12.8,73.1 -24.1,-560.9 -24.1,-560.9" style="fill:#39393a;fill-opacity:1;fill-rule:nonzero;stroke:none" id="path48"/><path d="m 13721.5,2434.4 c 53.6,-238.9 41,-346.8 143.9,-368.2 187.7,-39 224.3,112.2 234.1,229.2 9.7,117.1 63.4,165.9 63.4,165.9 0,0 -1.8,-434.2 -24.4,-541.4 -19.5,-92.7 -18.6,-148.6 -118.6,-148.6 -140.7,0 -241.2,-23.3 -310.6,-0.2 -78.5,26.2 -47.7,352.8 -58.5,504.8 -12.5,175.6 -20.8,210.9 -11,254.8 9.8,43.9 81.7,-96.3 81.7,-96.3" style="fill:#39393a;fill-opacity:1;fill-rule:nonzero;stroke:none" id="path50"/><path d="m 13693.6,3957.3 c 66.3,-1.7 121.4,-52.1 129.6,-117.9 47.2,-378.5 84.9,-1315.6 76.2,-1376.9 -9.8,-68.3 -42.9,-389.6 -73.2,-242.7 -89,431.7 -142,1057.8 -195.1,1316.9 -51.2,250 -141.4,311 -43.9,389 49.8,39.8 41,33.3 106.4,31.6" style="fill:#39393a;fill-opacity:1;fill-rule:nonzero;stroke:none" id="path52"/><path d="m 13982.1,3906.2 c -81.4,-92.7 5.2,-1724.5 19.7,-1725.6 14.6,-1 53.7,525.8 126.8,828.1 73.2,302.5 75.9,798.7 75.6,799.9 -29.4,117 -160.9,139.5 -222.1,97.6" style="fill:#39393a;fill-opacity:1;fill-rule:nonzero;stroke:none" id="path54"/><path d="m 16615,1716.3 c -73.2,0 -760.9,14.6 -785.3,-43.9 -24.3,-58.6 -104.3,-200 43,-200 147.3,0 552.1,68.3 625.2,97.5 73.2,29.3 161,102.5 161,102.5 l -43.9,43.9" style="fill:#39393a;fill-opacity:1;fill-rule:nonzero;stroke:none" id="path86"/><path d="m 16241.7,6342.4 c 395.1,-460.9 296.4,-1590 230.5,-1889.9 -65.8,-300 -74.4,-352.6 -212.5,-350.7 -54.2,0.7 -176.5,77.5 -154.5,326.3 21.9,248.7 -4.9,938.2 -4.9,1214.4 0,161 -43.9,945.2 -43.9,945.2 l 185.3,-245.3" style="fill:#39393a;fill-opacity:1;fill-rule:nonzero;stroke:none" id="path114"/><path d="m 15984.8,6018.1 c -54.6,-570.7 -11.3,-1282.3 0,-1497.4 10.9,-204.8 21.2,-399.5 -76.4,-419 -97.5,-19.5 -332.4,291 -376.3,576.3 -34.9,226.8 26.2,710.8 65.8,925.5 56.2,304.2 126.2,414.6 202.1,570.7 75.9,156 147.9,331.6 160.7,404.8 12.8,73.1 24.1,-560.9 24.1,-560.9" style="fill:#39393a;fill-opacity:1;fill-rule:nonzero;stroke:none" id="path116"/><path d="m 16209.9,2434.4 c -53.6,-238.9 -41,-346.8 -143.8,-368.2 -187.8,-39 -224.4,112.2 -234.2,229.2 -9.7,117.1 -63.4,165.9 -63.4,165.9 0,0 1.8,-434.2 24.4,-541.4 19.5,-92.7 18.6,-148.6 118.6,-148.6 140.7,0 241.3,-23.3 310.6,-0.2 78.5,26.2 47.7,352.8 58.6,504.8 12.5,175.6 20.7,210.9 10.9,254.8 -9.8,43.9 -81.7,-96.3 -81.7,-96.3" style="fill:#39393a;fill-opacity:1;fill-rule:nonzero;stroke:none" id="path118"/><path d="m 16237.8,3957.3 c -66.3,-1.7 -121.4,-52.1 -129.6,-117.9 -47.2,-378.5 -84.9,-1315.6 -76.2,-1376.9 9.8,-68.3 42.9,-389.6 73.2,-242.7 89,431.7 142,1057.8 195.1,1316.9 51.2,250 141.4,311 43.9,389 -49.8,39.8 -41,33.3 -106.4,31.6" style="fill:#39393a;fill-opacity:1;fill-rule:nonzero;stroke:none" id="path120"/><path d="m 15949.3,3906.2 c 81.5,-92.7 -5.2,-1724.5 -19.7,-1725.6 -14.6,-1 -53.7,525.8 -126.8,828.1 -73.2,302.5 -75.9,798.7 -75.6,799.9 29.4,117 160.9,139.5 222.1,97.6" style="fill:#39393a;fill-opacity:1;fill-rule:nonzero;stroke:none" id="path122"/><path d="m 4376.95,6594.8 c -54.87,-252.4 -91.2,-362.1 -263.38,-702.3 -141.13,-278.9 -190.39,-537.7 -124.46,-530.4 65.93,7.3 303.7,556.4 340.28,658.5 36.59,102.1 146.65,414.8 155.47,479.1 12.44,90.9 -16.46,150 -38.41,175.6 -21.95,25.6 -69.5,-80.5 -69.5,-80.5" style="fill:#39393a;fill-opacity:1;fill-rule:nonzero;stroke:none" id="path204"/><path d="m 4356.22,5847.4 c -63.41,-195.1 -287.76,-497.5 -302.4,-687.7 -14.63,-190.2 133.21,-1407.2 117.06,-1558.3 59.41,103.2 133.99,580.5 238.99,831.5 64.67,154.7 113.97,360.5 0,1053.6 -33.24,202.1 -53.65,360.9 -53.65,360.9" style="fill:#39393a;fill-opacity:1;fill-rule:nonzero;stroke:none" id="path206"/><path d="m 3692.47,6401 c 80.9,-548.7 351.6,-1858.3 380.86,-2443.6 29.27,-585.3 7.32,-508.5 -18.29,-556 -25.6,-47.6 -259.72,602.3 -332.88,968.1 -73.16,365.8 -160.95,1258.4 -126.81,1599.8 34.14,341.4 19.51,604.8 53.65,590.2 34.14,-14.7 43.47,-158.5 43.47,-158.5" style="fill:#39393a;fill-opacity:1;fill-rule:nonzero;stroke:none" id="path208"/><path d="m 3483.17,5764.5 c -34.14,-400 -19.51,-1146.2 34.14,-1458.4 53.66,-312.1 219.49,-941.3 234.12,-1048.6 14.63,-107.3 -34.15,-229.2 0,-268.3 34.14,-39 151.2,204.8 131.68,409.7 -19.5,204.9 -167.38,726.8 -208.06,931.6 -40.68,204.9 -143.1,721.9 -138.22,902.3 4.87,180.5 4.87,409.7 14.62,590.2 9.76,180.4 34.15,253.6 0,253.6 -34.14,0 -68.28,-312.1 -68.28,-312.1" style="fill:#39393a;fill-opacity:1;fill-rule:nonzero;stroke:none" id="path210"/><path d="M 3735.82 2530.8 C 3826.94 2363.7 4145.53 2291.8 4189.42 2130.8 C 4257.7 2194.2 4311.36 2452.7 4277.21 2599.1 C 4243.07 2745.4 4213.81 2852.7 4179.67 2901.5 C 4145.53 2950.2 4135.56 2974.7 4101.63 3023.4 C 4071.27 3067 3967.5 3176.4 3889.46 3088.6 C 3811.43 3000.8 3825.1 2960 3807.29 2842.9 C 3789.48 2725.9 3706.56 2584.4 3735.82 2530.8" style="fill:#39393a;fill-opacity:1;fill-rule:nonzero;stroke:none" id="path212"/><path d="M 4011.15 3273.3 C 4190.39 3111.2 4237.94 2878.3 4237.94 2936.8 C 4237.94 2995.3 4248.92 3160 4183.08 3233.1 C 4117.23 3306.3 4081.37 3317.2 4038.94 3317.2 C 3996.51 3317.2 4011.15 3273.3 4011.15 3273.3" style="fill:#39393a;fill-opacity:1;fill-rule:nonzero;stroke:none" id="path214"/><path d="M 3791.66 2267.4 C 3736.8 2124.7 3429.52 1778.4 3392.94 1708.9 C 3356.36 1639.4 3602.67 1567.5 3653.88 1567.5 C 3705.09 1567.5 3863.61 1537 3900.19 1518.7 C 3936.77 1500.4 3945.3 1634.6 3948.96 1678.5 C 3952.62 1722.4 4088.69 1941.8 4038.94 2047.9 C 3989.2 2154 4112.35 2121.1 4008.71 2186.9 C 3905.06 2252.8 3791.66 2267.4 3791.66 2267.4" style="fill:#39393a;fill-opacity:1;fill-rule:nonzero;stroke:none" id="path216"/><path d="m 4078.21,1949.2 c 0,-84.2 -2.94,-186.6 -52.68,-311 -49.74,-124.4 10.97,-160.9 26.34,-153.6 15.37,7.3 121.45,29.2 121.45,29.2 0,0 40.24,65.9 29.26,106.1 -10.97,40.3 97.55,156.4 39.02,252.4 -58.52,96.1 -73.42,206.1 -87.79,239 -14.37,32.9 -75.6,-162.1 -75.6,-162.1" style="fill:#39393a;fill-opacity:1;fill-rule:nonzero;stroke:none" id="path218"/><path d="m 5681.74,6594.8 c 54.87,-252.4 91.19,-362.1 263.37,-702.3 141.14,-278.9 190.4,-537.7 124.46,-530.4 -65.93,7.3 -303.7,556.4 -340.28,658.5 -36.58,102.1 -146.65,414.8 -155.47,479.1 -12.44,90.9 16.47,150 38.42,175.6 21.94,25.6 69.5,-80.5 69.5,-80.5" style="fill:#39393a;fill-opacity:1;fill-rule:nonzero;stroke:none" id="path292"/><path d="m 5702.47,5847.4 c 63.4,-195.1 287.76,-497.5 302.39,-687.7 14.63,-190.2 -133.21,-1407.2 -117.06,-1558.3 -59.41,103.2 -133.98,580.5 -238.99,831.5 -64.67,154.7 -113.97,360.5 0,1053.6 33.25,202.1 53.66,360.9 53.66,360.9" style="fill:#39393a;fill-opacity:1;fill-rule:nonzero;stroke:none" id="path294"/><path d="m 6366.22,6401 c -80.91,-548.7 -351.61,-1858.3 -380.87,-2443.6 -29.26,-585.3 -7.31,-508.5 18.29,-556 25.61,-47.6 259.72,602.3 332.88,968.1 73.16,365.8 160.95,1258.4 126.81,1599.8 -34.14,341.4 -19.51,604.8 -53.65,590.2 -34.14,-14.7 -43.46,-158.5 -43.46,-158.5" style="fill:#39393a;fill-opacity:1;fill-rule:nonzero;stroke:none" id="path296"/><path d="m 6575.51,5764.5 c 34.14,-400 19.51,-1146.2 -34.14,-1458.4 -53.65,-312.1 -219.48,-941.3 -234.11,-1048.6 -14.64,-107.3 34.14,-229.2 0,-268.3 -34.15,-39 -151.2,204.8 -131.69,409.7 19.51,204.9 167.38,726.8 208.06,931.6 40.68,204.9 143.11,721.9 138.23,902.3 -4.88,180.5 -4.88,409.7 -14.63,590.2 -9.76,180.4 -34.14,253.6 0,253.6 34.14,0 68.28,-312.1 68.28,-312.1" style="fill:#39393a;fill-opacity:1;fill-rule:nonzero;stroke:none" id="path298"/><path d="m 6322.86,2530.8 c -91.12,-167.1 -409.7,-239 -453.6,-400 -68.28,63.4 -121.93,321.9 -87.79,468.3 34.14,146.3 63.41,253.6 97.55,302.4 34.14,48.7 44.1,73.2 78.04,121.9 30.35,43.6 134.12,153 212.16,65.2 78.04,-87.8 64.36,-128.6 82.18,-245.7 17.81,-117 100.72,-258.5 71.46,-312.1" style="fill:#39393a;fill-opacity:1;fill-rule:nonzero;stroke:none" id="path300"/><path d="m 6047.54,3273.3 c -179.24,-162.1 -226.8,-395 -226.8,-336.5 0,58.5 -10.97,223.2 54.87,296.3 65.84,73.2 101.7,84.1 144.13,84.1 42.43,0 27.8,-43.9 27.8,-43.9" style="fill:#39393a;fill-opacity:1;fill-rule:nonzero;stroke:none" id="path302"/><path d="m 6267.02,2267.4 c 54.87,-142.7 362.14,-489 398.72,-558.5 36.58,-69.5 -209.72,-141.4 -260.94,-141.4 -51.21,0 -209.72,-30.5 -246.3,-48.8 -36.58,-18.3 -45.12,115.9 -48.78,159.8 -3.66,43.9 -139.72,263.3 -89.98,369.4 49.75,106.1 -73.41,73.2 30.23,139 103.65,65.9 217.05,80.5 217.05,80.5" style="fill:#39393a;fill-opacity:1;fill-rule:nonzero;stroke:none" id="path304"/><path d="m 5980.47,1949.2 c 0,-84.2 2.94,-186.6 52.68,-311 49.75,-124.4 -10.97,-160.9 -26.33,-153.6 -15.37,7.3 -121.45,29.2 -121.45,29.2 0,0 -40.24,65.9 -29.27,106.1 10.97,40.3 -97.55,156.4 -39.02,252.4 58.53,96.1 73.43,206.1 87.8,239 14.36,32.9 75.59,-162.1 75.59,-162.1" style="fill:#39393a;fill-opacity:1;fill-rule:nonzero;stroke:none" id="path306"/></g><g style=""><title>Quadriceps</title><path d="M 4006.21 10930.3 C 4156.32 10818.1 4624.55 10223.1 4777.07 9476.8 C 4777.07 9476.8 4697.21 9209.6 4590.08 9233 C 4566.25 9238.2 4222.16 10334 3947.81 10842.5 C 3869.16 10988.3 3863.68 11065.6 3863.68 11065.6 L 4006.21 10930.3" style="fill:#39393a;fill-opacity:1;fill-rule:nonzero;stroke:none" id="path234"/><path d="M 3780.69 10925.9 C 3967.11 10305.3 4587.44 7949.1 4576.31 7582.5 C 4762.76 8116 4609.84 8817.7 4380.61 9492 C 4188.91 10055.9 3780.69 10925.9 3780.69 10925.9" style="fill:#39393a;fill-opacity:1;fill-rule:nonzero;stroke:none" id="path236"/><path d="M 3683.14 10793 C 3800.2 10247.1 4200.34 9367.4 4251.08 8605.5 C 4299.99 7871.3 4213.56 7127.6 4076.99 7069 C 3940.42 7010.5 3708.32 7977 3668.51 8139.7 C 3567.57 8552.5 3345.64 9306.2 3370.02 9695.6 C 3391.07 10031.7 3447.69 10207.9 3492.93 10363.8 C 3553.71 10573.3 3683.14 10793 3683.14 10793" style="fill:#39393a;fill-opacity:1;fill-rule:nonzero;stroke:none" id="path238"/><path d="M 3422.21 8907.9 C 3446.59 8688.4 3594.13 7970.2 3780.69 7505.7 C 3867.57 7289.3 3892.87 7057 3824.59 6983.8 C 3756.3 6910.6 3678.27 7315.5 3570.97 7486.2 C 3463.66 7656.9 3374.07 8207.9 3368.16 8429.9 C 3360.46 8719.7 3312.47 8946.9 3336.85 9025 C 3361.24 9103 3422.21 8907.9 3422.21 8907.9" style="fill:#39393a;fill-opacity:1;fill-rule:nonzero;stroke:none" id="path240"/><path d="M 4305.31 8437.2 C 4380.61 7597.1 4171.56 7188.7 4283.06 7013.1 C 4394.56 6837.5 4482.16 6913.7 4468.4 7010.6 C 4443.96 7182.8 4574.48 7462.6 4468.4 7959.3 C 4412.31 8221.9 4305.31 8437.2 4305.31 8437.2" style="fill:#39393a;fill-opacity:1;fill-rule:nonzero;stroke:none" id="path242"/><path d="M 4817.13 9368.8 C 4726.9 9234.7 4604.97 9109.9 4607.4 9067.4 C 4609.84 9025 4734.21 8381.2 4726.9 8308 C 4802.5 8381.2 4873.22 9259.1 4868.34 9339.6 C 4863.47 9420 4817.13 9368.8 4817.13 9368.8" style="fill:#39393a;fill-opacity:1;fill-rule:nonzero;stroke:none" id="path244"/><path d="M 6052.48 10930.3 C 5902.37 10818.1 5434.14 10223.1 5281.62 9476.8 C 5281.62 9476.8 5361.47 9209.6 5468.6 9233 C 5492.43 9238.2 5836.52 10334 6110.87 10842.5 C 6189.52 10988.3 6195.01 11065.6 6195.01 11065.6 L 6052.48 10930.3" style="fill:#39393a;fill-opacity:1;fill-rule:nonzero;stroke:none" id="path322"/><path d="m 6277.99,10925.9 c -186.42,-620.6 -806.75,-2976.8 -795.62,-3343.4 -186.44,533.5 -33.53,1235.2 195.71,1909.5 191.7,563.9 599.91,1433.9 599.91,1433.9" style="fill:#39393a;fill-opacity:1;fill-rule:nonzero;stroke:none" id="path324"/><path d="m 6375.54,10793 c -117.06,-545.9 -517.2,-1425.6 -567.94,-2187.5 -48.9,-734.2 37.53,-1477.9 174.09,-1536.5 136.57,-58.5 368.68,908 408.48,1070.7 100.94,412.8 322.88,1166.5 298.49,1555.9 -21.05,336.1 -77.66,512.3 -122.9,668.2 -60.79,209.5 -190.22,429.2 -190.22,429.2" style="fill:#39393a;fill-opacity:1;fill-rule:nonzero;stroke:none" id="path326"/><path d="M 6636.48 8907.9 C 6612.09 8688.4 6464.55 7970.2 6277.99 7505.7 C 6191.11 7289.3 6165.81 7057 6234.1 6983.8 C 6302.38 6910.6 6380.42 7315.5 6487.72 7486.2 C 6595.02 7656.9 6684.61 8207.9 6690.52 8429.9 C 6698.22 8719.7 6746.22 8946.9 6721.83 9025 C 6697.45 9103 6636.48 8907.9 6636.48 8907.9" style="fill:#39393a;fill-opacity:1;fill-rule:nonzero;stroke:none" id="path328"/><path d="M 5753.37 8437.2 C 5678.08 7597.1 5887.12 7188.7 5775.62 7013.1 C 5664.13 6837.5 5576.52 6913.7 5590.29 7010.6 C 5614.72 7182.8 5484.2 7462.6 5590.29 7959.3 C 5646.37 8221.9 5753.37 8437.2 5753.37 8437.2" style="fill:#39393a;fill-opacity:1;fill-rule:nonzero;stroke:none" id="path330"/><path d="M 5241.55 9368.8 C 5331.79 9234.7 5453.72 9109.9 5451.28 9067.4 C 5448.84 9025 5324.47 8381.2 5331.79 8308 C 5256.19 8381.2 5185.46 9259.1 5190.34 9339.6 C 5195.22 9420 5241.55 9368.8 5241.55 9368.8" style="fill:#39393a;fill-opacity:1;fill-rule:nonzero;stroke:none" id="path332"/></g></g><g style=""><title>Chest</title><path d="M 3529.59 14949.9 C 3506.1 14635.2 3588.55 14254.5 3841.94 14103.4 C 3934.99 14048 4042.9 14023.8 4149.09 14002.3 C 4482.43 13935.1 4885.41 14101.1 4917.99 14405.7 C 4952.85 14731.6 5002.47 15121.7 4856.15 15407 C 4758.82 15596.8 4664.76 15597.2 4558.68 15608.2 C 4452.6 15619.2 4124.55 15630.1 3996.5 15571.6 C 3830.05 15495.5 3633.99 15385 3575.54 15200.9 C 3552.29 15127.7 3536.45 15041.6 3529.59 14949.9" style="fill:#39393a;fill-opacity:1;fill-rule:nonzero;stroke:none" id="path158"><title>Chest</title></path><path d="M 6529.09 14949.9 C 6552.58 14635.2 6470.13 14254.5 6216.74 14103.4 C 6123.7 14048 6015.79 14023.8 5909.6 14002.3 C 5576.25 13935.1 5173.27 14101.1 5140.69 14405.7 C 5105.84 14731.6 5056.22 15121.7 5202.53 15407 C 5299.87 15596.8 5393.92 15597.2 5500 15608.2 C 5606.09 15619.2 5934.14 15630.1 6062.19 15571.6 C 6228.63 15495.5 6424.69 15385 6483.14 15200.9 C 6506.39 15127.7 6522.24 15041.6 6529.09 14949.9" style="fill:#39393a;fill-opacity:1;fill-rule:nonzero;stroke:none" id="path246"><title>Chest</title></path></g><g style=""><title>Back</title><g style=""><title>Infraspinatus</title><path d="m 13354.4,15309.5 c 154.2,85.1 314.3,159.9 478.4,223.7 17.6,6.9 36,13.7 54.7,12 86.2,-8 124,-275.7 139.5,-337.6 49.7,-198 98.3,-396.1 160.2,-590.7 75.3,-237.1 -275,-36.7 -343.9,0 -112.2,59.6 -220.2,104.1 -313.1,195.5 -111.6,109.7 -167,254.9 -230.6,394.5 -21.4,47 -30.5,54.1 16.6,81.1 12.7,7.3 25.4,14.4 38.2,21.5" style="fill:#39393a;fill-opacity:1;fill-rule:nonzero;stroke:none" id="path24"/><path d="m 13348.6,14910.9 c 3.6,-7.6 6.8,-13.9 9.6,-18 46.7,-68.8 106.6,-128 172.2,-178.8 118.4,-91.6 262.5,-185.1 411.7,-209.4 85.9,-14 116.1,-24.1 139,-36.9 22.8,-12.8 -20.1,-51.2 -20.1,-55.8 0,-4.6 -132.3,-75.6 -273.8,-92.7 -210.2,-25.3 -424.1,67.1 -520.2,261.2 -36.3,73.5 -54.5,154.9 -58.6,236.5 -3.5,67.5 -17.3,143.7 28.6,201.1 45.3,56.6 87.5,-56.3 111.6,-107.2" style="fill:#39393a;fill-opacity:1;fill-rule:nonzero;stroke:none" id="path28"/><path d="m 16577,15309.5 c -154.2,85.1 -314.3,159.9 -478.4,223.7 -17.6,6.9 -36,13.7 -54.7,12 -86.2,-8 -124,-275.7 -139.5,-337.6 -49.7,-198 -98.2,-396.1 -160.1,-590.7 -75.4,-237.1 274.9,-36.7 343.8,0 112.2,59.6 220.2,104.1 313.1,195.5 111.6,109.7 167,254.9 230.6,394.5 21.5,47 30.5,54.1 -16.6,81.1 -12.7,7.3 -25.4,14.4 -38.2,21.5" style="fill:#39393a;fill-opacity:1;fill-rule:nonzero;stroke:none" id="path92"/><path d="m 16582.8,14910.9 c -3.6,-7.6 -6.8,-13.9 -9.6,-18 -46.6,-68.8 -106.6,-128 -172.2,-178.8 -118.4,-91.6 -262.5,-185.1 -411.7,-209.4 -85.9,-14 -116.1,-24.1 -139,-36.9 -22.8,-12.8 20.2,-51.2 20.2,-55.8 0,-4.6 132.3,-75.6 273.7,-92.7 210.3,-25.3 424.1,67.1 520.2,261.2 36.3,73.5 54.5,154.9 58.6,236.5 3.5,67.5 17.3,143.7 -28.6,201.1 -45.3,56.6 -87.5,-56.3 -111.6,-107.2" style="fill:#39393a;fill-opacity:1;fill-rule:nonzero;stroke:none" id="path96"/></g><g style=""><title>Lats</title><path d="M 14265.2 14460.8 C 14343.2 14316.6 14509.1 13916.6 14567.6 13804.4 C 14626.1 13692.3 14713.9 13648.4 14694.4 13531.3 C 14674.9 13414.3 14517.8 12987.8 14450.5 12846.4 C 14383.3 12704.9 14284.7 12417.2 14231 12287.6 C 14173.8 12149.3 14123.7 11999.8 14099.4 11926.7 C 14079.6 11867.4 13890.4 12137.6 13819.1 12242.5 C 13801.3 12268.7 13789.2 12298 13783.5 12329.1 C 13764 12435 13715 12705.2 13675 12955.8 C 13651.8 13101 13606.7 13160.6 13567.7 13482.5 C 13528.7 13804.4 13548.2 13750.8 13450.7 13916.6 C 13353.1 14082.4 13328.7 14297.1 13348.3 14301.9 C 13479.9 14204.4 13620.2 14206.6 13716.7 14189.8 C 13742.9 14185.2 13824.9 14173.4 13923.8 14206.6 C 14087.8 14261.7 14113 14289.6 14147.1 14353 C 14181.3 14416.4 14265.2 14460.8 14265.2 14460.8" style="fill:#39393a;fill-opacity:1;fill-rule:nonzero;stroke:none" id="path34"><title>Lat</title></path><path d="M 15666.2 14460.8 C 15588.2 14316.6 15422.4 13916.6 15363.8 13804.4 C 15305.3 13692.3 15217.5 13648.4 15237 13531.3 C 15256.5 13414.3 15413.6 12987.8 15480.9 12846.4 C 15548.1 12704.9 15646.7 12417.2 15700.4 12287.6 C 15757.6 12149.3 15807.7 11999.8 15832 11926.7 C 15851.8 11867.4 16041 12137.6 16112.3 12242.5 C 16130.1 12268.7 16142.2 12298 16147.9 12329.1 C 16167.4 12435 16216.4 12705.2 16256.4 12955.8 C 16279.6 13101 16324.7 13160.6 16363.7 13482.5 C 16402.7 13804.4 16383.2 13750.8 16480.7 13916.6 C 16578.3 14082.4 16602.7 14297.1 16583.2 14301.9 C 16451.5 14204.4 16311.2 14206.6 16214.7 14189.8 C 16188.5 14185.2 16106.5 14173.4 16007.6 14206.6 C 15843.6 14261.7 15818.4 14289.6 15784.3 14353 C 15750.1 14416.4 15666.2 14460.8 15666.2 14460.8" style="fill:#39393a;fill-opacity:1;fill-rule:nonzero;stroke:none" id="path102"><title>Lat</title></path></g><g><title>Traps</title><g style=""><title>LowerTraps</title><path d="M 13843.3 15824 C 13975 15685 14124.1 15138.6 14209.1 14851 C 14307.1 14519.5 14377.8 14315.2 14633.4 13899.9 C 14805.3 13620.6 14794.4 13439 14831 13468.2 C 14882.2 14031.6 14999.2 15567.9 14801.7 15728.9 C 14604.2 15889.9 14538.3 15860.6 14318.8 15889.9 C 14099.4 15919.1 13843.3 15824 13843.3 15824" style="fill:#39393a;fill-opacity:1;fill-rule:nonzero;stroke:none" id="path22"><title>LTrap</title></path><path d="M 16088.1 15824 C 15956.4 15685 15807.3 15138.6 15722.3 14851 C 15624.3 14519.5 15553.6 14315.2 15298 13899.9 C 15126.1 13620.6 15137 13439 15100.4 13468.2 C 15049.2 14031.6 14932.2 15567.9 15129.7 15728.9 C 15327.2 15889.9 15393.1 15860.6 15612.6 15889.9 C 15832 15919.1 16088.1 15824 16088.1 15824" style="fill:#39393a;fill-opacity:1;fill-rule:nonzero;stroke:none" id="path90"><title>LTrap</title></path></g><g style=""><title>UpperTraps</title><path d="m 14624.3,16934.7 c -14.7,-27.7 -10,-66.5 -7.9,-102.3 4.7,-80.2 -15.7,-178.3 -26.9,-258.5 -14.5,-104.2 -63,-241.3 -113.4,-332.9 -45.5,-82.8 -97.3,-83.2 -178,-134.6 -48.6,-30.8 -70.2,-32 -119.1,-62.3 -10.7,-6.7 -64.7,-37.7 -59.2,-52.8 4.9,-13.7 82.9,-15.8 97.3,-17.4 143.4,-15.9 288,-10.8 431.9,-5.6 43.4,1.5 86.7,3 130.1,4.6 18.9,0.7 38.9,1.7 54.6,12.2 27.4,18.3 30.7,56.5 31.2,89.4 4.8,280.9 9.6,521.2 14.4,802.1 0.4,24.1 0,50.6 -15.9,68.7 -10.4,11.8 -25.7,17.9 -40.7,22.3 -50.6,14.7 -105.3,14.6 -155.8,-0.3 -21.8,-6.4 -34.9,-18 -42.6,-32.6" style="fill:#39393a;fill-opacity:1;fill-rule:nonzero;stroke:none" id="path72"><title>UTrap</title></path><path d="m 15307.1,16934.7 c 14.7,-27.7 10,-66.5 7.9,-102.3 -4.7,-80.2 15.7,-178.3 26.9,-258.5 14.5,-104.2 63,-241.3 113.4,-332.9 45.5,-82.8 97.3,-83.2 178,-134.6 48.6,-30.8 70.2,-32 119.1,-62.3 10.7,-6.7 64.7,-37.7 59.2,-52.8 -4.9,-13.7 -82.9,-15.8 -97.3,-17.4 -143.4,-15.9 -288,-10.8 -431.9,-5.6 -43.3,1.5 -86.7,3 -130.1,4.6 -18.9,0.7 -38.9,1.7 -54.6,12.2 -27.4,18.3 -30.7,56.5 -31.2,89.4 -4.8,280.9 -9.6,521.2 -14.4,802.1 -0.4,24.1 0,50.6 15.9,68.7 10.4,11.8 25.7,17.9 40.7,22.3 50.6,14.7 105.4,14.6 155.8,-0.3 21.8,-6.4 34.9,-18 42.6,-32.6" style="fill:#39393a;fill-opacity:1;fill-rule:nonzero;stroke:none" id="path140"><title>UTrap</title></path><path d="m 4412.31,16114.2 c -82.92,-100 -397.51,-306.7 -485.3,-334.1 -14.63,-56.7 446.28,-108.5 504.81,-62.2 58.53,46.4 58.53,345.1 48.77,396.3 -9.75,51.2 -68.28,0 -68.28,0" style="fill:#39393a;fill-opacity:1;fill-rule:nonzero;stroke:none" id="path188"><title>UTrap</title></path><path d="m 5646.38,16114.2 c 82.91,-100 397.5,-306.7 485.29,-334.1 14.63,-56.7 -446.28,-108.5 -504.81,-62.2 -58.52,46.4 -58.52,345.1 -48.77,396.3 9.76,51.2 68.29,0 68.29,0" style="fill:#39393a;fill-opacity:1;fill-rule:nonzero;stroke:none" id="path276"><title>UTrap</title></path></g></g><g style=""><title>LowerBack</title><path d="m 13786.8,12149.7 c 13.5,-4 25.7,-13.2 38.3,-27.2 51.7,-57.7 99.5,-118.7 143.3,-182.5 41.1,-60 96.6,-130.8 112.7,-203.2 12.9,-58.2 -161.8,-136.5 -197.8,-159.7 -88.1,-56.6 -163.5,-124.5 -216.9,-215.7 -31.9,-54.3 -42.9,-23 -49.9,21.8 -20.9,134.3 -37.1,276.1 -25.7,414.3 9.7,116.5 26.6,298.7 149.3,347.7 17.9,7.1 33,8.5 46.7,4.5" style="fill:#39393a;fill-opacity:1;fill-rule:nonzero;stroke:none" id="path36"/><path d="M 14762.7 13265.8 C 14743.7 13305 14713.9 13197.6 14655.4 13095.1 C 14596.9 12992.7 14392 12505 14353 12397.7 C 14334.1 12345.6 14048.2 11657.5 14132.3 11602.7 C 14376.5 11443.4 14801.7 11171 14801.7 11171 C 14928.5 11666.1 14845.6 13095.1 14762.7 13265.8" style="fill:#39393a;fill-opacity:1;fill-rule:nonzero;stroke:none" id="path70"><title>LBack</title></path><path d="M 15168.7 13265.8 C 15187.8 13305 15217.5 13197.6 15276 13095.1 C 15334.6 12992.7 15539.4 12505 15578.4 12397.7 C 15597.3 12345.6 15883.3 11657.5 15799.1 11602.7 C 15554.9 11443.4 15129.7 11171 15129.7 11171 C 15002.9 11666.1 15085.8 13095.1 15168.7 13265.8" style="fill:#39393a;fill-opacity:1;fill-rule:nonzero;stroke:none" id="path138"><title>LBack</title></path><path d="m 16144.6,12149.7 c -13.5,-4 -25.7,-13.2 -38.3,-27.2 -51.7,-57.7 -99.5,-118.7 -143.3,-182.5 -41.1,-60 -96.6,-130.8 -112.7,-203.2 -12.9,-58.2 161.8,-136.5 197.8,-159.7 88.2,-56.6 163.5,-124.5 216.9,-215.7 31.9,-54.3 42.9,-23 49.9,21.8 20.9,134.3 37.1,276.1 25.7,414.3 -9.7,116.5 -26.6,298.7 -149.3,347.7 -17.9,7.1 -33,8.5 -46.7,4.5" style="fill:#39393a;fill-opacity:1;fill-rule:nonzero;stroke:none" id="path104"/></g></g><g style=""><title>Obliques</title><path d="M 3631.93 14221.8 C 3734.36 14101.1 3886.82 14016.6 3974.57 13971.7 C 4018.86 13949 4023.34 13863.3 3986.76 13852.3 C 3950.18 13841.4 3650.22 13948.4 3613.64 14015.6 C 3577.06 14082.8 3566.09 14181.6 3573.4 14221.8 C 3580.72 14262 3631.93 14221.8 3631.93 14221.8" style="fill:#39393a;fill-opacity:1;fill-rule:nonzero;stroke:none" id="path160"/><path d="M 3529.76 13938.5 C 3528.39 13930.3 3528.54 13922.2 3530.69 13914.2 C 3564.74 13787.9 3684.85 13576.5 3733.14 13552.4 C 3762.4 13537.7 3897.75 13684.1 3916.04 13695 C 3934.33 13706 3974.57 13760.9 3974.57 13760.9 C 3974.57 13760.9 3683.82 13866 3628.57 13916.4 C 3609 13934.2 3545.63 14032.8 3545.63 14032.8 L 3529.76 13938.5" style="fill:#39393a;fill-opacity:1;fill-rule:nonzero;stroke:none" id="path162"/><path d="M 3550.24 13706 C 3550.24 13706 3524.63 13512.1 3594.13 13365.8 C 3663.64 13219.5 3692.9 13201.2 3692.9 13201.2 C 3692.9 13201.2 3780.69 13435.3 3744.11 13471.9 C 3707.53 13508.5 3550.24 13706 3550.24 13706" style="fill:#39393a;fill-opacity:1;fill-rule:nonzero;stroke:none" id="path164"/><path d="M 3748.72 12760.4 C 3795.05 12689.7 4101.99 12458.6 4133.69 12419.6 C 4165.4 12380.6 4133.39 12142.2 4144.06 12048.9 C 4022.12 12078.2 3763.16 12291.6 3746.09 12374.5 C 3729.02 12457.4 3748.72 12760.4 3748.72 12760.4" style="fill:#39393a;fill-opacity:1;fill-rule:nonzero;stroke:none" id="path166"/><path d="M 3733.14 13142.3 C 3750.21 13124 4020.29 12897.2 4133.12 12844.1 C 4181.46 12821.3 4144.06 12469.2 4144.06 12469.2 C 4144.06 12469.2 3810.36 12738.2 3760.01 12818.7 C 3709.66 12899.1 3728.87 12950.9 3723.99 12985 C 3719.12 13019.2 3733.14 13142.3 3733.14 13142.3" style="fill:#39393a;fill-opacity:1;fill-rule:nonzero;stroke:none" id="path168"/><path d="M 3744.26 12261.5 C 3747.04 12268.4 3756.11 12269.5 3761.21 12264.2 C 3967.2 12048.9 4111.41 11983.6 4151.37 11951.4 C 4189.17 11920.9 4200.15 11251.5 4244.04 11085.7 C 4263.79 11011 4301.77 10936.7 4268.64 10920.7 C 4224.75 10899.4 4108.99 10952.8 4076.03 10988.7 L 3683.14 11417.3 C 3683.14 11417.3 3691.86 12133 3744.26 12261.5" style="fill:#39393a;fill-opacity:1;fill-rule:nonzero;stroke:none" id="path178"/><path d="M 4080.65 13753.6 C 3914.82 13612.1 3841.19 13544.7 3823.37 13513.4 C 3803.53 13478.5 4048.95 13280.5 4114.79 13258.5 C 4180.63 13236.6 4144.06 13439 4144.06 13495.1 C 4144.06 13551.2 4148.93 13770.6 4144.06 13785.3 C 4139.18 13799.9 4080.65 13753.6 4080.65 13753.6" style="fill:#39393a;fill-opacity:1;fill-rule:nonzero;stroke:none" id="path180"/><path d="M 3801.83 13380.2 C 3806.22 13394.1 3823.56 13398.9 3834.15 13388.9 C 3909.97 13317.3 4119.1 13210.2 4130.95 13171.9 C 4140.14 13142.3 4159.95 12925.9 4133.12 12918.6 C 4106.3 12911.3 3739.54 13165.5 3744.11 13188.6 C 3750.19 13219.3 3784.59 13325.6 3801.83 13380.2" style="fill:#39393a;fill-opacity:1;fill-rule:nonzero;stroke:none" id="path182"/><path d="M 6426.75 14221.8 C 6324.33 14101.1 6171.87 14016.6 6084.12 13971.7 C 6039.82 13949 6035.35 13863.3 6071.92 13852.3 C 6108.51 13841.4 6408.46 13948.4 6445.04 14015.6 C 6481.62 14082.8 6492.6 14181.6 6485.28 14221.8 C 6477.96 14262 6426.75 14221.8 6426.75 14221.8" style="fill:#39393a;fill-opacity:1;fill-rule:nonzero;stroke:none" id="path248"/><path d="M 6528.93 13938.5 C 6530.3 13930.3 6530.15 13922.2 6528 13914.2 C 6493.95 13787.9 6373.83 13576.5 6325.55 13552.4 C 6296.28 13537.7 6160.94 13684.1 6142.65 13695 C 6124.35 13706 6084.12 13760.9 6084.12 13760.9 C 6084.12 13760.9 6374.87 13866 6430.11 13916.4 C 6449.68 13934.2 6513.06 14032.8 6513.06 14032.8 L 6528.93 13938.5" style="fill:#39393a;fill-opacity:1;fill-rule:nonzero;stroke:none" id="path250"/><path d="M 6508.45 13706 C 6508.45 13706 6534.05 13512.1 6464.55 13365.8 C 6395.05 13219.5 6365.79 13201.2 6365.79 13201.2 C 6365.79 13201.2 6277.99 13435.3 6314.57 13471.9 C 6351.15 13508.5 6508.45 13706 6508.45 13706" style="fill:#39393a;fill-opacity:1;fill-rule:nonzero;stroke:none" id="path252"/><path d="M 6309.97 12760.4 C 6263.63 12689.7 5956.69 12458.6 5924.99 12419.6 C 5893.29 12380.6 5925.29 12142.2 5914.63 12048.9 C 6036.56 12078.2 6295.52 12291.6 6312.59 12374.5 C 6329.66 12457.4 6309.97 12760.4 6309.97 12760.4" style="fill:#39393a;fill-opacity:1;fill-rule:nonzero;stroke:none" id="path254"/><path d="M 6325.55 13142.3 C 6308.48 13124 6038.39 12897.2 5925.56 12844.1 C 5877.23 12821.3 5914.63 12469.2 5914.63 12469.2 C 5914.63 12469.2 6248.32 12738.2 6298.68 12818.7 C 6349.03 12899.1 6329.81 12950.9 6334.69 12985 C 6339.57 13019.2 6325.55 13142.3 6325.55 13142.3" style="fill:#39393a;fill-opacity:1;fill-rule:nonzero;stroke:none" id="path256"/><path d="M 6314.43 12261.5 C 6311.64 12268.4 6302.58 12269.5 6297.48 12264.2 C 6091.48 12048.9 5947.27 11983.6 5907.31 11951.4 C 5869.52 11920.9 5858.54 11251.5 5814.64 11085.7 C 5794.89 11011 5756.91 10936.7 5790.05 10920.7 C 5833.93 10899.4 5949.69 10952.8 5982.65 10988.7 L 6375.54 11417.3 C 6375.54 11417.3 6366.82 12133 6314.43 12261.5" style="fill:#39393a;fill-opacity:1;fill-rule:nonzero;stroke:none" id="path266"/><path d="M 5978.04 13753.6 C 6143.87 13612.1 6217.5 13544.7 6235.32 13513.4 C 6255.16 13478.5 6009.74 13280.5 5943.89 13258.5 C 5878.05 13236.6 5914.63 13439 5914.63 13495.1 C 5914.63 13551.2 5909.75 13770.6 5914.63 13785.3 C 5919.51 13799.9 5978.04 13753.6 5978.04 13753.6" style="fill:#39393a;fill-opacity:1;fill-rule:nonzero;stroke:none" id="path268"/><path d="M 6256.85 13380.2 C 6252.47 13394.1 6235.13 13398.9 6224.53 13388.9 C 6148.71 13317.3 5939.58 13210.2 5927.74 13171.9 C 5918.54 13142.3 5898.73 12925.9 5925.56 12918.6 C 5952.38 12911.3 6319.14 13165.5 6314.57 13188.6 C 6308.5 13219.3 6274.09 13325.6 6256.85 13380.2" style="fill:#39393a;fill-opacity:1;fill-rule:nonzero;stroke:none" id="path270"/></g><g style=""><title>Abdominals</title><path d="M 4300.13 13823.1 C 4234.79 13778.7 4234.29 13651.1 4223.31 13599.9 C 4212.34 13548.7 4248.92 13318.3 4248.92 13318.3 C 4248.92 13318.3 4285.5 13135.4 4300.13 13113.4 C 4318.45 13086.1 4799.19 13397.1 4845.44 13425.7 C 4884.39 13449.9 4934.82 13449.4 4953.09 13500.3 C 4983.12 13583.9 4967.35 13686.1 4963.73 13774.2 C 4960.55 13851.6 4965.17 14016.4 4891.09 14065 C 4824.75 14108.4 4735.28 14033.7 4676.12 14007.6 C 4574.02 13962.5 4471.68 13917 4372.87 13865 C 4348.14 13852 4323.27 13838.8 4300.13 13823.1" style="fill:#39393a;fill-opacity:1;fill-rule:nonzero;stroke:none" id="path170"/><path d="M 4897.05 13330.8 C 4847.92 13319 4839.23 13302.5 4792.05 13279.8 C 4733.71 13251.7 4676.28 13221.6 4619.62 13190.3 C 4531.72 13141.7 4423.56 13091.2 4354.16 13016.3 C 4351.47 13013.4 4348.83 13010.5 4346.46 13007.3 C 4290.38 12931.7 4287.93 12675.7 4292.81 12658.6 C 4297.69 12641.5 4930.73 12591.5 4962.23 12681.8 C 4988.86 12758 4968.47 12839 4971.38 12918.5 C 4975.58 13033.3 4981.86 13170.1 4969.55 13272.5 C 4968.53 13281 4920.17 13336.3 4897.05 13330.8" style="fill:#39393a;fill-opacity:1;fill-rule:nonzero;stroke:none" id="path172"/><path d="M 4291.14 12500.1 C 4251.36 12383 4273.31 12085.5 4322.08 12044.1 C 4370.85 12002.6 4882.97 12004.5 4936.63 12006.9 C 4990.27 12009.4 4986.94 12266 4987.84 12348.9 C 4988.73 12431.8 4994.32 12572.8 4962.62 12585 C 4930.91 12597.2 4700.07 12595.2 4629.35 12568.4 C 4558.63 12541.5 4291.14 12500.1 4291.14 12500.1" style="fill:#39393a;fill-opacity:1;fill-rule:nonzero;stroke:none" id="path174"/><path d="m 4291.14,11909.9 c 11.43,-180.4 124.21,-1657.2 566.56,-1761.3 41.45,-9.8 85.7,-54.4 98.2,-30 32.93,78 32.87,1645 32.87,1713.3 0,68.3 -104.64,75.3 -158.29,89.9 -53.65,14.6 -487.21,27.1 -513.28,7.6 -26.06,-19.5 -26.06,-19.5 -26.06,-19.5" style="fill:#39393a;fill-opacity:1;fill-rule:nonzero;stroke:none" id="path176"/><path d="M 5758.55 13823.1 C 5823.9 13778.7 5824.4 13651.1 5835.37 13599.9 C 5846.35 13548.7 5809.77 13318.3 5809.77 13318.3 C 5809.77 13318.3 5773.19 13135.4 5758.55 13113.4 C 5740.24 13086.1 5259.5 13397.1 5213.24 13425.7 C 5174.29 13449.9 5123.86 13449.4 5105.6 13500.3 C 5075.56 13583.9 5091.34 13686.1 5094.95 13774.2 C 5098.13 13851.6 5093.51 14016.4 5167.59 14065 C 5233.94 14108.4 5323.41 14033.7 5382.57 14007.6 C 5484.66 13962.5 5587 13917 5685.82 13865 C 5710.54 13852 5735.41 13838.8 5758.55 13823.1" style="fill:#39393a;fill-opacity:1;fill-rule:nonzero;stroke:none" id="path258"/><path d="M 5161.64 13330.8 C 5210.76 13319 5219.45 13302.5 5266.64 13279.8 C 5324.97 13251.7 5382.4 13221.6 5439.07 13190.3 C 5526.96 13141.7 5635.13 13091.2 5704.52 13016.3 C 5707.21 13013.4 5709.86 13010.5 5712.22 13007.3 C 5768.31 12931.7 5770.75 12675.7 5765.87 12658.6 C 5760.99 12641.5 5127.96 12591.5 5096.45 12681.8 C 5069.83 12758 5090.21 12839 5087.31 12918.5 C 5083.11 13033.3 5076.83 13170.1 5089.14 13272.5 C 5090.16 13281 5138.52 13336.3 5161.64 13330.8" style="fill:#39393a;fill-opacity:1;fill-rule:nonzero;stroke:none" id="path260"/><path d="M 5767.55 12500.1 C 5807.33 12383 5785.38 12085.5 5736.61 12044.1 C 5687.83 12002.6 5175.71 12004.5 5122.06 12006.9 C 5068.41 12009.4 5071.74 12266 5070.85 12348.9 C 5069.96 12431.8 5064.36 12572.8 5096.07 12585 C 5127.77 12597.2 5358.61 12595.2 5429.34 12568.4 C 5500.05 12541.5 5767.55 12500.1 5767.55 12500.1" style="fill:#39393a;fill-opacity:1;fill-rule:nonzero;stroke:none" id="path262"/><path d="m 5767.55,11909.9 c -11.43,-180.4 -124.21,-1657.2 -566.56,-1761.3 -41.46,-9.8 -85.7,-54.4 -98.2,-30 -32.93,78 -32.88,1645 -32.88,1713.3 0,68.3 104.65,75.3 158.3,89.9 53.64,14.6 487.21,27.1 513.27,7.6 26.07,-19.5 26.07,-19.5 26.07,-19.5" style="fill:#39393a;fill-opacity:1;fill-rule:nonzero;stroke:none" id="path264"/></g><g style=""><title>Neck</title><path d="m 4559.85,16691 c 164.61,-132.9 167.77,-278.3 240.21,-423.1 208.5,-417.1 132.6,-668.7 84.19,-616.8 -141,151 -287.82,633.8 -309.77,674.1 -21.95,40.2 -14.63,365.8 -14.63,365.8" style="fill:#39393a;fill-opacity:1;fill-rule:nonzero;stroke:none" id="path184"/><path d="m 4534.49,16086.2 c -19.51,-151.2 -7.46,-201.2 24.19,-281.7 31.65,-80.5 209.67,-164.6 226.75,-176.8 -96.33,230.4 -185.34,389 -226.75,532.8 -34.19,-7.3 -24.19,-74.3 -24.19,-74.3" style="fill:#39393a;fill-opacity:1;fill-rule:nonzero;stroke:none" id="path186"/><path d="m 5027.48,16570.2 c 4.1,-190.2 27.75,-509.6 2.59,-580.4 -25.16,-70.7 -85.44,180.5 -167.48,353.6 -82.04,173.2 -51.15,108.2 -73.1,186.2 -21.95,78 -150.38,70.7 -62.59,78 87.79,7.3 300.58,-37.4 300.58,-37.4" style="fill:#39393a;fill-opacity:1;fill-rule:nonzero;stroke:none" id="path232"/><path d="m 5498.83,16691 c -164.61,-132.9 -167.76,-278.3 -240.2,-423.1 -208.51,-417.1 -132.6,-668.7 -84.19,-616.8 140.99,151 287.82,633.8 309.76,674.1 21.95,40.2 14.63,365.8 14.63,365.8" style="fill:#39393a;fill-opacity:1;fill-rule:nonzero;stroke:none" id="path272"/><path d="m 5524.2,16086.2 c 19.51,-151.2 7.46,-201.2 -24.2,-281.7 -31.65,-80.5 -209.67,-164.6 -226.74,-176.8 96.32,230.4 185.34,389 226.74,532.8 34.19,-7.3 24.2,-74.3 24.2,-74.3" style="fill:#39393a;fill-opacity:1;fill-rule:nonzero;stroke:none" id="path274"/><path d="m 5027.48,16570.2 c -4.11,-190.2 -24.02,-509.6 1.14,-580.4 25.15,-70.7 85.44,180.5 167.48,353.6 82.03,173.2 51.15,108.2 73.09,186.2 21.95,78 150.39,70.7 62.6,78 -87.8,7.3 -304.31,-37.4 -304.31,-37.4" style="fill:#39393a;fill-opacity:1;fill-rule:nonzero;stroke:none" id="path320"/></g></g></g></svg>